<?xml version="1.0" encoding="UTF-8" standalone="no"?>
<svg
   viewBox="0,0,256,256"
   width="96px"
   height="96px"
   fill-rule="nonzero"
   version="1.1"
   id="svg2"
   sodipodi:docname="nextjs.svg"
   inkscape:version="1.4.2 (f4327f4, 2025-05-13)"
   xmlns:inkscape="http://www.inkscape.org/namespaces/inkscape"
   xmlns:sodipodi="http://sodipodi.sourceforge.net/DTD/sodipodi-0.dtd"
   xmlns="http://www.w3.org/2000/svg"
   xmlns:svg="http://www.w3.org/2000/svg">
  <defs
     id="defs2" />
  <sodipodi:namedview
     id="namedview2"
     pagecolor="#ffffff"
     bordercolor="#000000"
     borderopacity="0.25"
     inkscape:showpageshadow="2"
     inkscape:pageopacity="0.0"
     inkscape:pagecheckerboard="0"
     inkscape:deskcolor="#d1d1d1"
     inkscape:zoom="5.6936827"
     inkscape:cx="11.064895"
     inkscape:cy="45.928095"
     inkscape:window-width="1920"
     inkscape:window-height="991"
     inkscape:window-x="-9"
     inkscape:window-y="-9"
     inkscape:window-maximized="1"
     inkscape:current-layer="svg2" />
  <g
     fill="#ffffff"
     fill-rule="nonzero"
     stroke="none"
     stroke-width="1"
     stroke-linecap="butt"
     stroke-linejoin="miter"
     stroke-miterlimit="10"
     stroke-dasharray=""
     stroke-dashoffset="0"
     font-family="none"
     font-weight="none"
     font-size="none"
     text-anchor="none"
     style="mix-blend-mode:normal;stroke:none;stroke-opacity:1"
     id="g2">
    <g
       transform="scale(5.33333,5.33333)"
       id="g1"
       style="stroke:none;stroke-opacity:1">
      <path
         d="M18.974,31.5c0,0.828 -0.671,1.5 -1.5,1.5c-0.829,0 -1.5,-0.672 -1.5,-1.5v-14c0,-0.653 0.423,-1.231 1.045,-1.43c0.625,-0.198 1.302,0.03 1.679,0.563l16.777,23.704c5.142,-3.628 8.525,-9.602 8.525,-16.337c0,-11 -9,-20 -20,-20c-11,0 -20,9 -20,20c0,11 9,20 20,20c3.192,0 6.206,-0.777 8.89,-2.122l-13.916,-19.662zM28.974,16.5c0,-0.828 0.671,-1.5 1.5,-1.5c0.829,0 1.5,0.672 1.5,1.5v13.84l-3,-4.227z"
         id="path1"
         style="stroke:none;stroke-opacity:1" />
    </g>
  </g>
  <path
     style="fill:#0a0a0a;fill-opacity:1;stroke:#0a0a0a;stroke-width:0.175633;stroke-opacity:1"
     d="m 34.22711,64.731931 c -1.193107,-0.519268 -1.120242,0.504888 -1.120242,-15.745648 0,-14.462474 0.0055,-14.697412 0.354012,-15.140482 0.194708,-0.24753 0.622622,-0.538704 0.950922,-0.647053 1.260681,-0.416062 1.352981,-0.316655 6.620566,7.130216 2.656622,3.75571 4.889142,6.927357 4.961156,7.048105 0.102041,0.171095 -0.373506,0.219542 -2.154984,0.219542 h -2.285918 l -2.239813,-3.161399 c -1.231897,-1.738769 -2.302324,-3.161398 -2.378728,-3.161398 -0.0764,0 -0.138915,5.040651 -0.138915,11.201447 0,12.424678 0.06343,11.753409 -1.158929,12.264144 -0.703705,0.294027 -0.716535,0.293959 -1.409127,-0.0075 z"
     id="path4"
     transform="scale(2.6666667)" />
  <path
     style="fill:#0a0a0a;fill-opacity:1;stroke:#0a0a0a;stroke-width:0.175633;stroke-opacity:1"
     d="m 60.900829,54.490337 -1.800241,-2.576292 v -9.816327 -9.816327 l 0.597154,-0.597153 c 0.830819,-0.83082 1.663172,-0.83082 2.493992,0 l 0.597153,0.597153 v 12.399708 c 0,6.819839 -0.01976,12.396518 -0.04391,12.392619 -0.02415,-0.0039 -0.854016,-1.166419 -1.844148,-2.583381 z"
     id="path5"
     transform="scale(2.6666667)" />
  <path
     style="fill:#0a0a0a;fill-opacity:1;stroke:#0a0a0a;stroke-width:0.0439083;stroke-opacity:1"
     d="M 49.523635,62.470552 C 44.118551,54.833249 39.527564,48.347443 39.321442,48.057648 l -0.374769,-0.5269 -0.02201,8.057176 -0.02201,8.057175 -0.09974,0.351266 c -0.324704,1.143603 -1.086863,2.061158 -2.132662,2.567488 -0.67022,0.32449 -0.891468,0.372557 -1.719236,0.373508 -0.604458,6.94e-4 -0.751296,-0.01331 -1.051831,-0.100296 -1.335995,-0.386701 -2.350109,-1.39287 -2.776809,-2.755049 L 30.999269,63.689007 V 49.001677 34.314346 l 0.121043,-0.38588 c 0.156543,-0.499054 0.38058,-0.940556 0.677816,-1.335749 1.545292,-2.054562 4.687042,-2.07753 6.260707,-0.04577 0.154352,0.199283 6.768532,9.530389 14.698178,20.73579 7.929646,11.205401 14.847613,20.981038 15.373259,21.723638 l 0.955721,1.35018 -1.194633,-0.001 -1.194633,-10e-4 L 51.5947,55.013804 C 43.286389,43.273318 36.409289,33.596248 36.307315,33.502251 36.088473,33.30053 35.67442,33.082147 35.431296,33.040216 l -0.172921,-0.02982 0.238082,0.121797 c 0.135445,0.06929 0.391721,0.274641 0.59447,0.476344 0.812094,0.807898 1.59925,1.878775 6.812462,9.267934 3.253995,4.612181 3.194856,4.526246 3.157011,4.58748 -0.05942,0.09614 -0.267182,0.141972 -0.79093,0.174473 l -0.5269,0.0327 0.79035,0.0072 0.79035,0.0072 4.632327,6.548679 c 2.547779,3.601773 7.106199,10.047812 10.129819,14.324531 l 5.497494,7.775852 -2.375963,0.01136 c -1.306779,0.0062 -2.379541,0.0062 -2.383915,0 -1.491989,-2.130834 -20.250479,-28.611825 -20.291011,-28.644419 -0.03334,-0.02681 -0.06062,-0.06356 -0.06062,-0.08167 0,-0.05432 -2.711419,-3.871888 -3.610687,-5.083696 -0.264336,-0.356206 -0.491149,-0.647648 -0.504029,-0.647648 -0.01288,0 -0.0038,0.0247 0.0202,0.05488 0.06295,0.07922 24.188105,34.171623 24.274259,34.303115 l 0.07209,0.110025 h -1.186086 -1.186086 z m -14.90559,2.495612 c -0.01006,-0.01 -0.176365,-0.08052 -0.369561,-0.156769 -0.193197,-0.07625 -0.415483,-0.176092 -0.493969,-0.221877 -0.19899,-0.116081 -0.178691,-0.06736 0.02928,0.07027 0.204592,0.135392 0.649881,0.324009 0.768391,0.325476 0.04629,5.73e-4 0.07592,-0.0071 0.06586,-0.0171 z m 1.204669,-0.149334 c 0.504732,-0.238647 0.877797,-0.667061 1.042944,-1.197679 0.08064,-0.259087 0.08319,-0.579645 0.08319,-10.457415 0,-5.604574 -0.01174,-10.178395 -0.02609,-10.164048 -0.01435,0.01435 -0.04348,4.310228 -0.06474,9.546399 -0.02316,5.705128 -0.05673,9.757857 -0.08377,10.113075 -0.08389,1.102165 -0.223884,1.605224 -0.511036,1.83635 -0.08034,0.06466 -0.349173,0.202405 -0.59741,0.306093 -0.332659,0.13895 -0.406859,0.182781 -0.282177,0.166685 0.09304,-0.01201 0.290628,-0.07927 0.439083,-0.14946 z m -2.340977,-0.480175 c -0.123106,-0.167403 -0.253131,-0.728283 -0.307913,-1.328227 -0.11573,-1.26742 -0.139446,-4.375212 -0.12002,-15.727723 0.02024,-11.829263 0.0308,-12.566867 0.187772,-13.112437 0.158075,-0.549415 0.933535,-1.070718 1.709441,-1.14917 l 0.307358,-0.03108 -0.250312,-0.0064 c -1.010045,-0.02598 -1.893503,0.708286 -2.052606,1.705985 -0.0634,0.397543 -0.0634,28.230676 0,28.62822 0.05438,0.341021 0.238366,0.755207 0.434893,0.979039 0.16773,0.191035 0.218048,0.214065 0.09139,0.04183 z"
     id="path6"
     transform="scale(2.6666667)" />
  <path
     style="fill:#0a0a0a;fill-opacity:1;stroke:#0a0a0a;stroke-width:0.0439083;stroke-opacity:1"
     d=""
     id="path7"
     transform="scale(2.6666667)" />
  <path
     style="fill:#0a0a0a;fill-opacity:1;stroke:#0a0a0a;stroke-width:0.0439083;stroke-opacity:1"
     d=""
     id="path8"
     transform="scale(2.6666667)" />
  <path
     style="fill:#0a0a0a;fill-opacity:1;stroke:#0a0a0a;stroke-width:0.0439083;stroke-opacity:1"
     d="M 59.08794,75.994312 C 58.878395,75.702506 53.8461,68.592886 48.332411,60.798914 47.840027,60.102897 47.097627,59.054306 46.682632,58.468711 46.267636,57.883116 44.367154,55.198022 42.459338,52.501834 39.004463,47.619292 38.99046,47.600327 38.960181,47.762799 c -0.01672,0.08972 -0.03154,3.675603 -0.03293,7.968634 -0.0025,7.59218 -0.0049,7.814188 -0.08801,8.123037 -0.121769,0.452322 -0.198654,0.655672 -0.374201,0.989716 -0.394014,0.749761 -0.976631,1.31364 -1.757687,1.701159 -0.703614,0.349097 -0.907079,0.393273 -1.800241,0.390866 -0.73001,-0.002 -0.755973,-0.0053 -1.179494,-0.149887 -1.305838,-0.44591 -2.239447,-1.440477 -2.639568,-2.811913 l -0.108889,-0.37322 V 49.001677 34.402163 l 0.103572,-0.352813 c 0.227173,-0.773854 0.520041,-1.293955 1.014247,-1.801192 0.787935,-0.808709 1.731477,-1.207826 2.860034,-1.20979 1.071611,-0.0019 2.038929,0.39647 2.782185,1.145685 0.248615,0.250609 1.044521,1.34312 3.247978,4.458384 2.71519,3.838754 5.290874,7.478037 8.343203,11.788432 0.692594,0.978057 5.404543,7.636753 10.470996,14.797101 5.066454,7.160348 9.231394,13.043513 9.255422,13.0737 0.03473,0.04364 -0.203164,0.05488 -1.160714,0.05488 H 66.691681 L 66.559945,76.16994 C 66.487495,76.067304 63.526351,71.883391 59.979636,66.872355 56.432922,61.861319 53.126603,57.188377 52.632261,56.488039 52.13792,55.787701 51.640671,55.086266 51.527265,54.929294 51.413858,54.772322 51.083834,54.307991 50.793878,53.897449 50.503921,53.486906 48.126445,50.12792 45.510598,46.433035 42.89475,42.738151 40.25097,39.003749 39.635532,38.134364 37.029835,34.453485 36.4783,33.689891 36.29804,33.513643 c -0.187913,-0.183731 -0.673878,-0.450689 -0.820423,-0.450689 -0.04156,0 0.04436,0.08008 0.190929,0.177959 0.735159,0.49092 1.463776,1.452654 6.484964,8.559795 3.156771,4.468189 3.932623,5.585219 3.915433,5.637232 -0.02234,0.06759 -0.19502,0.148709 -0.404294,0.189932 -0.144076,0.02838 -0.09939,0.03685 0.248707,0.04712 l 0.42434,0.01252 6.247807,8.835003 c 3.436294,4.859252 6.458283,9.131384 6.715532,9.493628 1.090439,1.535496 7.145421,10.109256 7.217353,10.219659 l 0.07867,0.120748 h -2.388789 -2.388788 l -1.885568,-2.66743 c -1.037063,-1.467086 -3.662569,-5.17679 -5.834457,-8.243785 -2.171889,-3.066996 -4.23557,-5.98141 -4.585958,-6.476476 -2.946529,-4.163178 -6.437395,-9.082945 -7.500773,-10.571033 -0.297727,-0.416639 -0.541322,-0.766505 -0.541322,-0.777479 0,-0.06348 -3.715148,-5.24883 -3.76063,-5.24883 -0.01263,0 0.04483,0.09385 0.127695,0.208564 0.08286,0.11471 1.016754,1.433606 2.075314,2.93088 1.05856,1.497273 2.421506,3.423751 3.028768,4.28106 0.607262,0.85731 1.852168,2.615838 2.766458,3.90784 0.914289,1.292002 2.215064,3.129565 2.890611,4.083473 0.675547,0.953908 1.577684,2.228347 2.00475,2.832086 1.404039,1.98488 4.014769,5.674823 7.589069,10.726204 1.935833,2.735818 3.519697,4.983374 3.519697,4.99457 0,0.0112 -0.53214,0.02036 -1.182533,0.02036 H 59.348066 Z M 34.57328,64.96515 c -0.02445,-0.02445 -0.75341,-0.332362 -0.784501,-0.331374 -0.01281,4.06e-4 0.03926,0.04081 0.115715,0.08979 0.184299,0.118064 0.749392,0.322195 0.668786,0.241589 z m 1.313474,-0.189065 c 0.128263,-0.06392 0.242831,-0.131794 0.254597,-0.150831 0.02268,-0.0367 -0.688911,0.258343 -0.728202,0.301927 -0.05001,0.05547 0.253236,-0.04127 0.473605,-0.151096 z M 33.369327,64.10333 c -0.11548,-0.327307 -0.188299,-0.860473 -0.24849,-1.819389 -0.04566,-0.727403 -0.05781,-3.610392 -0.05757,-13.655485 3.21e-4,-13.189234 0.009,-13.894029 0.178137,-14.463569 0.123096,-0.414509 0.589223,-0.822114 1.192539,-1.042817 0.279337,-0.102185 0.285448,-0.107194 0.09994,-0.08192 -0.633976,0.08639 -1.244183,0.632315 -1.500494,1.342424 l -0.10216,0.283035 v 14.336064 14.336064 l 0.101585,0.281326 c 0.09151,0.253435 0.357696,0.723003 0.39098,0.68972 0.0073,-0.0073 -0.01719,-0.09978 -0.05447,-0.205457 z m 3.38108,-0.216317 c 0.05483,-0.108903 0.121731,-0.301851 0.148658,-0.428773 0.03527,-0.166219 0.04631,-2.708491 0.03949,-9.08902 -0.0052,-4.87204 -0.02002,-8.275371 -0.03291,-7.562959 -0.0129,0.712412 -0.02848,4.005668 -0.03462,7.318344 -0.01431,7.708752 -0.06021,9.174042 -0.310732,9.918739 l -0.08759,0.26038 0.08901,-0.109352 c 0.04895,-0.06014 0.133872,-0.198455 0.188707,-0.307359 z"
     id="path9"
     transform="scale(2.6666667)" />
  <path
     style="fill:#0a0a0a;fill-opacity:1;stroke:#0a0a0a;stroke-width:0.0439083;stroke-opacity:1"
     d="M 57.410119,73.646742 C 56.359612,72.158591 55.093573,70.366404 54.5967,69.664105 52.697588,66.979834 49.349249,62.248767 48.03726,60.395884 47.284869,59.333303 46.095944,57.65381 45.395205,56.663677 39.534383,48.382429 39.194877,47.904624 39.082578,47.77957 l -0.092,-0.102446 -0.0229,1.046474 c -0.0126,0.575561 -0.02788,4.151579 -0.03396,7.946708 -0.01069,6.675081 -0.01384,6.910872 -0.09646,7.226308 -0.376746,1.438375 -1.386125,2.493816 -2.810488,2.938742 -0.296155,0.09251 -0.408888,0.102574 -1.119662,0.09996 -0.743185,-0.0027 -0.811311,-0.0101 -1.141616,-0.123411 -1.356056,-0.465214 -2.275714,-1.442263 -2.695943,-2.864184 l -0.09223,-0.312092 0.0016,-14.660642 0.0016,-14.660643 0.165744,-0.490216 c 0.629495,-1.861841 2.275018,-2.942663 4.220295,-2.771996 0.915755,0.08034 1.875591,0.555718 2.482737,1.22962 0.296098,0.328656 0.522608,0.647625 18.374484,25.874806 3.195701,4.51597 6.593962,9.317344 7.55169,10.66972 0.957728,1.352376 2.439669,3.446802 3.293201,4.654281 0.853532,1.207478 1.643749,2.323847 1.756039,2.48082 0.112289,0.156972 0.219025,0.310102 0.23719,0.340289 0.0261,0.04338 -0.219919,0.05488 -1.173421,0.05488 H 66.682029 L 62.6576,70.670422 c -2.213436,-3.12737 -4.035288,-5.686127 -4.048562,-5.686127 -0.01327,0 -0.0048,0.0247 0.01882,0.05489 0.04037,0.05158 1.15018,1.62091 4.556821,6.443545 2.889266,4.090208 3.402295,4.821176 3.402295,4.847627 0,0.01482 -1.079782,0.02183 -2.399514,0.01559 l -2.399514,-0.01135 -2.563311,-3.622436 c -1.409821,-1.992339 -2.885524,-4.076886 -3.279341,-4.632327 -0.393817,-0.55544 -2.638385,-3.726718 -4.987928,-7.047284 -2.349544,-3.320566 -4.302909,-6.067031 -4.340812,-6.103255 -0.06126,-0.05854 -0.06376,-0.05854 -0.02247,0 0.02554,0.03622 2.150028,3.039553 4.721075,6.674063 3.791113,5.359234 8.312228,11.752379 10.097414,14.278386 0.165319,0.233922 0.300579,0.436449 0.300579,0.450061 0,0.01361 -0.538426,0.02383 -1.196501,0.0227 l -1.196502,-0.002 z M 34.248484,64.829663 c -0.120748,-0.05688 -0.239301,-0.103075 -0.26345,-0.102653 -0.02415,4.23e-4 0.05488,0.04835 0.175633,0.106512 0.120748,0.05816 0.2393,0.104352 0.26345,0.102653 0.02415,-0.0017 -0.05489,-0.04963 -0.175633,-0.106512 z m 24.147023,-0.18565 c -0.114315,-0.16301 -0.237903,-0.326019 -0.27464,-0.362244 -0.03674,-0.03622 0.0286,0.07245 0.145198,0.241496 0.257678,0.373595 0.290747,0.417129 0.316854,0.417129 0.01124,0 -0.0731,-0.133371 -0.187412,-0.296381 z m -22.533393,0.136012 c 0.06641,-0.03378 0.120748,-0.0701 0.120748,-0.08069 0,-0.02242 -0.404217,0.14678 -0.438183,0.183415 -0.03399,0.03666 0.178816,-0.0322 0.317435,-0.102721 z m -2.538771,-0.785708 c -0.122588,-0.405761 -0.196522,-1.310559 -0.238428,-2.917854 -0.05399,-2.070819 -0.05371,-22.15945 3.43e-4,-24.544747 0.04255,-1.877781 0.07573,-2.265472 0.217715,-2.543777 0.1564,-0.30657 0.560905,-0.63838 0.996663,-0.817551 0.140913,-0.05794 0.216688,-0.105798 0.168389,-0.106352 -0.158506,-0.0018 -0.631912,0.254403 -0.85418,0.462309 -0.268404,0.25106 -0.457142,0.539536 -0.572648,0.875259 -0.08737,0.253949 -0.08801,0.359712 -0.08801,14.600073 0,14.24103 6.34e-4,14.346112 0.08802,14.600108 0.08814,0.25618 0.300392,0.657474 0.331368,0.626497 0.0091,-0.0091 -0.0131,-0.114345 -0.04923,-0.233965 z m 3.436197,-0.145148 c 0.117352,-0.24215 0.120888,-0.272744 0.150466,-1.301778 0.04134,-1.438306 0.0469,-12.426794 0.0063,-12.386159 -0.01792,0.01792 -0.04605,2.713337 -0.06252,5.989825 -0.03277,6.518603 -0.05883,7.241493 -0.284184,7.883556 -0.05237,0.149213 -0.05175,0.163412 0.0051,0.116253 0.0356,-0.02954 0.118808,-0.16531 0.184906,-0.301697 z m 21.277622,0.289898 c -0.02328,-0.03019 -0.185636,-0.257412 -0.360783,-0.504945 -0.175146,-0.247533 -0.328884,-0.45006 -0.341639,-0.45006 -0.01275,0 -0.0041,0.0247 0.01914,0.05489 0.02328,0.03019 0.185636,0.257412 0.360783,0.504946 0.175146,0.247533 0.328884,0.45006 0.341639,0.45006 0.01275,0 0.0041,-0.0247 -0.01914,-0.05489 z m -0.914996,-1.295295 c -0.114315,-0.163009 -0.237903,-0.326019 -0.27464,-0.362243 -0.03674,-0.03623 0.0286,0.07245 0.145198,0.241495 0.257678,0.373595 0.290747,0.417129 0.316854,0.417129 0.01124,0 -0.0731,-0.133371 -0.187412,-0.296381 z m -0.358345,-0.504945 c -0.02328,-0.03019 -0.185636,-0.257413 -0.360783,-0.504946 -0.175146,-0.247533 -0.328884,-0.45006 -0.341639,-0.45006 -0.01275,0 -0.0041,0.0247 0.01914,0.05489 0.02328,0.03019 0.185636,0.257413 0.360783,0.504946 0.175146,0.247533 0.328884,0.45006 0.341639,0.45006 0.01275,0 0.0041,-0.0247 -0.01914,-0.05488 z m -0.746441,-1.0538 c -0.02328,-0.03019 -0.185636,-0.257412 -0.360783,-0.504945 -0.175147,-0.247534 -0.328884,-0.450061 -0.341639,-0.450061 -0.01275,0 -0.0041,0.0247 0.01914,0.05489 0.02328,0.03019 0.185636,0.257412 0.360782,0.504945 0.175147,0.247533 0.328885,0.45006 0.341639,0.45006 0.01275,0 0.0041,-0.0247 -0.01914,-0.05488 z m -0.914997,-1.295295 c -0.114315,-0.16301 -0.237902,-0.326019 -0.274639,-0.362244 -0.03674,-0.03622 0.0286,0.07245 0.145198,0.241496 0.257678,0.373595 0.290747,0.417129 0.316854,0.417129 0.01124,0 -0.0731,-0.133372 -0.187413,-0.296381 z m -0.41458,-0.581785 c -0.05159,-0.07245 -0.103676,-0.131725 -0.11575,-0.131725 -0.01207,0 0.02025,0.05928 0.07184,0.131725 0.05159,0.07245 0.103676,0.131725 0.11575,0.131725 0.01208,0 -0.02025,-0.05928 -0.07184,-0.131725 z m -0.26345,-0.373221 c -0.07477,-0.108673 -0.145823,-0.197587 -0.157898,-0.197587 -0.01207,0 0.03922,0.08891 0.11399,0.197587 0.07477,0.108673 0.145823,0.197587 0.157898,0.197587 0.01208,0 -0.03922,-0.08891 -0.11399,-0.197587 z m -0.26345,-0.373221 c -0.05159,-0.07245 -0.103675,-0.131725 -0.11575,-0.131725 -0.01207,0 0.02025,0.05928 0.07184,0.131725 0.05159,0.07245 0.103676,0.131725 0.115751,0.131725 0.01208,0 -0.02025,-0.05928 -0.07184,-0.131725 z m -0.331861,-0.472014 c -0.114315,-0.16301 -0.237902,-0.326019 -0.274639,-0.362244 -0.03674,-0.03622 0.0286,0.07245 0.145198,0.241496 0.257678,0.373595 0.290747,0.417129 0.316854,0.417129 0.01124,0 -0.0731,-0.133371 -0.187413,-0.296381 z m -0.41458,-0.581785 c -0.05159,-0.07245 -0.103676,-0.131725 -0.115751,-0.131725 -0.01207,0 0.02026,0.05928 0.07184,0.131725 0.05159,0.07245 0.103676,0.131725 0.11575,0.131725 0.01208,0 -0.02025,-0.05928 -0.07184,-0.131725 z m -0.26345,-0.373221 c -0.07477,-0.108673 -0.145823,-0.197587 -0.157898,-0.197587 -0.01207,0 0.03922,0.08891 0.11399,0.197587 0.07477,0.108673 0.145823,0.197588 0.157898,0.197588 0.01207,0 -0.03922,-0.08892 -0.11399,-0.197588 z m -0.26345,-0.37322 c -0.05159,-0.07245 -0.103676,-0.131725 -0.11575,-0.131725 -0.01207,0 0.02025,0.05928 0.07184,0.131725 0.05159,0.07245 0.103676,0.131725 0.115751,0.131725 0.01207,0 -0.02025,-0.05928 -0.07184,-0.131725 z m -0.219541,-0.307359 c -0.05159,-0.07245 -0.103676,-0.131725 -0.115751,-0.131725 -0.01208,0 0.02025,0.05928 0.07184,0.131725 0.05159,0.07245 0.103676,0.131725 0.115751,0.131725 0.01208,0 -0.02025,-0.05928 -0.07184,-0.131725 z m -0.26345,-0.37322 c -0.07477,-0.108673 -0.145823,-0.197588 -0.157898,-0.197588 -0.01208,0 0.03922,0.08892 0.11399,0.197588 0.07477,0.108673 0.145823,0.197587 0.157897,0.197587 0.01207,0 -0.03922,-0.08891 -0.113989,-0.197587 z m -0.26345,-0.373221 c -0.05159,-0.07245 -0.103676,-0.131725 -0.115751,-0.131725 -0.01207,0 0.02025,0.05928 0.07184,0.131725 0.05159,0.07245 0.103676,0.131725 0.11575,0.131725 0.01207,0 -0.02025,-0.05928 -0.07184,-0.131725 z m -0.219542,-0.307358 c -0.05159,-0.07245 -0.103675,-0.131725 -0.11575,-0.131725 -0.01208,0 0.02025,0.05928 0.07184,0.131725 0.05159,0.07245 0.103676,0.131725 0.115751,0.131725 0.01207,0 -0.02026,-0.05928 -0.07184,-0.131725 z m -0.307358,-0.439083 c -0.05159,-0.07245 -0.103676,-0.131725 -0.11575,-0.131725 -0.01208,0 0.02025,0.05928 0.07184,0.131725 0.05159,0.07245 0.103676,0.131725 0.115751,0.131725 0.01207,0 -0.02025,-0.05928 -0.07184,-0.131725 z M 51.39468,54.753666 c -0.05159,-0.07245 -0.103676,-0.131725 -0.115751,-0.131725 -0.01207,0 0.02025,0.05928 0.07184,0.131725 0.05159,0.07245 0.103676,0.131725 0.115751,0.131725 0.01208,0 -0.02025,-0.05928 -0.07184,-0.131725 z m -4.861496,0.03293 c -0.02328,-0.03019 -0.185636,-0.257413 -0.360782,-0.504946 -0.175147,-0.247533 -0.328885,-0.45006 -0.34164,-0.45006 -0.01275,0 -0.0041,0.0247 0.01914,0.05488 0.02328,0.03019 0.185636,0.257413 0.360783,0.504946 0.175147,0.247533 0.328884,0.45006 0.341639,0.45006 0.01275,0 0.0041,-0.0247 -0.01914,-0.05488 z m 4.641954,-0.356868 c 0,-0.0091 -0.03458,-0.04369 -0.07684,-0.07684 -0.06964,-0.05462 -0.07119,-0.05306 -0.01658,0.01658 0.05736,0.07314 0.09342,0.0964 0.09342,0.06026 z M 50.86778,54.007224 c -0.05159,-0.07245 -0.103676,-0.131725 -0.115751,-0.131725 -0.01207,0 0.02025,0.05928 0.07184,0.131725 0.05159,0.07245 0.103676,0.131725 0.11575,0.131725 0.01208,0 -0.02025,-0.05928 -0.07184,-0.131725 z m -5.137273,-0.351266 c -0.05159,-0.07245 -0.103675,-0.131725 -0.11575,-0.131725 -0.01207,0 0.02025,0.05928 0.07184,0.131725 0.05159,0.07245 0.103676,0.131725 0.115751,0.131725 0.01208,0 -0.02025,-0.05928 -0.07184,-0.131725 z m 4.917731,0.02733 c 0,-0.0091 -0.03458,-0.04369 -0.07684,-0.07684 -0.06964,-0.05462 -0.07119,-0.05306 -0.01658,0.01658 0.05736,0.07314 0.09342,0.0964 0.09342,0.06026 z m -5.249592,-0.499345 c -0.114315,-0.163009 -0.237902,-0.326019 -0.274639,-0.362243 -0.03674,-0.03622 0.0286,0.07245 0.145198,0.241496 0.257678,0.373594 0.290747,0.417129 0.316854,0.417129 0.01124,0 -0.0731,-0.133372 -0.187413,-0.296382 z m 5.030051,0.191987 c 0,-0.0091 -0.03458,-0.04369 -0.07684,-0.07684 -0.06964,-0.05462 -0.07119,-0.05306 -0.01658,0.01658 0.05736,0.07314 0.09342,0.0964 0.09342,0.06026 z m -0.307358,-0.422505 c -0.05159,-0.07245 -0.103676,-0.131725 -0.115751,-0.131725 -0.01208,0 0.02025,0.05928 0.07184,0.131725 0.05159,0.07245 0.103676,0.131725 0.115751,0.131725 0.01207,0 -0.02025,-0.05928 -0.07184,-0.131725 z m -5.249593,-0.515923 c -0.114314,-0.163009 -0.237902,-0.326019 -0.274639,-0.362243 -0.03674,-0.03623 0.0286,0.07245 0.145198,0.241495 0.257678,0.373595 0.290747,0.417129 0.316854,0.417129 0.01124,0 -0.0731,-0.133371 -0.187413,-0.296381 z m 5.030051,0.191987 c 0,-0.0091 -0.03458,-0.0437 -0.07684,-0.07684 -0.06964,-0.05462 -0.0712,-0.05306 -0.01658,0.01658 0.05736,0.07314 0.09342,0.0964 0.09342,0.06026 z M 49.682256,52.32213 c 0,-0.0091 -0.03458,-0.04369 -0.07684,-0.07684 -0.06964,-0.05462 -0.07119,-0.05306 -0.01658,0.01658 0.05736,0.07314 0.09342,0.0964 0.09342,0.06026 z m -5.22509,-0.466413 c -0.05159,-0.07245 -0.103676,-0.131725 -0.11575,-0.131725 -0.01208,0 0.02025,0.05928 0.07184,0.131725 0.05159,0.07245 0.103676,0.131725 0.115751,0.131725 0.01207,0 -0.02025,-0.05928 -0.07184,-0.131725 z m 4.917731,0.02733 c 0,-0.0091 -0.03458,-0.04369 -0.07684,-0.07684 -0.06964,-0.05462 -0.07119,-0.05306 -0.01658,0.01658 0.05736,0.07314 0.09342,0.0964 0.09342,0.06026 z m -5.137272,-0.334688 c -0.05159,-0.07245 -0.103676,-0.131725 -0.115751,-0.131725 -0.01207,0 0.02025,0.05928 0.07184,0.131725 0.05159,0.07245 0.103676,0.131725 0.115751,0.131725 0.01208,0 -0.02025,-0.05928 -0.07184,-0.131725 z m 4.917731,0.02733 c 0,-0.0091 -0.03458,-0.04369 -0.07684,-0.07684 -0.06964,-0.05462 -0.07119,-0.05306 -0.01658,0.01658 0.05736,0.07314 0.09342,0.0964 0.09342,0.06026 z m -5.181181,-0.400551 c -0.07477,-0.108673 -0.145823,-0.197587 -0.157898,-0.197587 -0.01208,0 0.03922,0.08891 0.11399,0.197587 0.07477,0.108673 0.145823,0.197588 0.157897,0.197588 0.01208,0 -0.03922,-0.08892 -0.113989,-0.197588 z m -0.26345,-0.37322 c -0.05159,-0.07245 -0.103676,-0.131725 -0.115751,-0.131725 -0.01207,0 0.02025,0.05928 0.07184,0.131725 0.05159,0.07245 0.103676,0.131724 0.11575,0.131724 0.01208,0 -0.02025,-0.05928 -0.07184,-0.131724 z m -0.219542,-0.307359 c -0.05159,-0.07245 -0.103675,-0.131725 -0.11575,-0.131725 -0.01208,0 0.02025,0.05928 0.07184,0.131725 0.05159,0.07245 0.103676,0.131725 0.115751,0.131725 0.01207,0 -0.02025,-0.05928 -0.07184,-0.131725 z m 4.917731,0.02733 c 0,-0.0091 -0.03458,-0.0437 -0.07684,-0.07684 -0.06964,-0.05462 -0.07119,-0.05306 -0.01658,0.01658 0.05736,0.07314 0.09342,0.0964 0.09342,0.06026 z m -5.137272,-0.351267 c 0,-0.0091 -0.03458,-0.04369 -0.07684,-0.07684 -0.06964,-0.05462 -0.07119,-0.05306 -0.01658,0.01658 0.05736,0.07314 0.09342,0.0964 0.09342,0.06026 z M 43.0521,49.863265 c 0,-0.0091 -0.03458,-0.04369 -0.07684,-0.07684 -0.06964,-0.05462 -0.07119,-0.05306 -0.01658,0.01658 0.05736,0.07314 0.09342,0.0964 0.09342,0.06026 z m -0.526899,-0.746441 c 0,-0.0091 -0.03458,-0.0437 -0.07684,-0.07684 -0.06964,-0.05462 -0.07119,-0.05306 -0.01658,0.01658 0.05736,0.07314 0.09342,0.0964 0.09342,0.06026 z m -5.589836,-0.586326 c -0.01113,-0.04272 -0.02097,-0.0184 -0.02187,0.05405 -8.95e-4,0.07245 0.0082,0.107402 0.02024,0.07767 0.01203,-0.02973 0.01276,-0.089 0.0016,-0.131725 z m 0.0023,-1.361993 c -0.0079,-0.235459 -0.01435,-0.04281 -0.01435,0.428106 0,0.470916 0.0065,0.663564 0.01435,0.428106 0.0079,-0.235459 0.0079,-0.620754 0,-0.856212 z m 4.289221,0.10977 c -0.384056,-0.560291 -2.431802,-3.433453 -2.542648,-3.56755 -0.03993,-0.0483 -0.05649,-0.05635 -0.03681,-0.0179 0.05868,0.114654 2.874373,4.079417 2.897116,4.079417 0.01151,0 -0.131437,-0.222286 -0.317663,-0.493969 z m 5.117446,0.373221 c -0.0012,-0.04512 -8.872323,-12.562498 -9.640298,-13.602726 -0.44894,-0.608092 -0.657009,-0.78538 -1.10687,-0.94312 -0.109193,-0.03829 -0.106289,-0.03168 0.03443,0.07835 0.689672,0.539245 1.408676,1.425652 3.320953,4.094161 1.725105,2.407317 6.519982,9.203933 6.934441,9.829394 l 0.214196,0.323244 -0.102387,0.08291 c -0.05631,0.0456 -0.144655,0.08623 -0.196316,0.09029 -0.05166,0.0041 0.02462,0.0205 0.16952,0.03653 0.144898,0.01603 0.288148,0.03247 0.318335,0.03653 0.03019,0.0041 0.05449,-0.0074 0.054,-0.02555 z"
     id="path10"
     transform="scale(2.6666667)" />
  <path
     style="fill:#0a0a0a;fill-opacity:1;stroke:#0a0a0a;stroke-width:0.0439083;stroke-opacity:1"
     d="m 57.542782,73.842804 c -0.976904,-1.382563 -2.3777,-3.363376 -3.112879,-4.401808 -0.735179,-1.038431 -2.028866,-2.866115 -2.87486,-4.061519 -0.845994,-1.195404 -1.866966,-2.637792 -2.268826,-3.205307 -1.341042,-1.893845 -4.223141,-5.965727 -6.013696,-8.496258 -3.104442,-4.387403 -4.22418,-5.949576 -4.264554,-5.949576 -0.022,0 -0.03937,0.430627 -0.03941,0.97696 -4e-5,0.537328 -0.01261,4.118599 -0.02794,7.958381 l -0.02787,6.981422 -0.102174,0.357351 c -0.343619,1.201804 -1.129919,2.126226 -2.238091,2.631236 -0.612699,0.279217 -0.749337,0.304536 -1.643417,0.304536 -0.741557,0 -0.839073,-0.0091 -1.119662,-0.104966 -1.3749,-0.469544 -2.27406,-1.398116 -2.717338,-2.806226 L 30.977314,63.66252 V 48.979831 34.297142 L 31.14874,33.81047 c 0.224757,-0.638076 0.476798,-1.069624 0.875102,-1.498359 0.793415,-0.854035 1.743727,-1.271783 2.905221,-1.277106 1.135576,-0.0052 2.144006,0.415894 2.878071,1.20182 0.323233,0.346069 1.588694,2.121653 11.494573,16.128181 1.110159,1.569722 2.229413,3.150422 2.487231,3.512665 0.257818,0.362244 1.160519,1.636683 2.006002,2.832086 0.845483,1.195404 4.152352,5.868346 7.348596,10.384316 3.196245,4.51597 6.29353,8.892531 6.882856,9.725691 l 1.071503,1.514837 -1.196334,0.0117 c -1.077316,0.01053 -1.204589,0.0042 -1.279313,-0.0634 -0.07738,-0.07003 -0.08105,-0.07008 -0.05444,-7.16e-4 0.02661,0.06934 -0.135229,0.07438 -2.391114,0.07438 -1.33081,0 -2.419753,-0.01482 -2.419873,-0.03293 -1.2e-4,-0.01811 -0.05115,-0.09221 -0.113399,-0.164656 l -0.113182,-0.131725 0.09145,0.138504 c 0.05029,0.07618 0.09145,0.150272 0.09145,0.164657 0,0.01438 -0.538686,0.02615 -1.197081,0.02615 h -1.19708 z m 8.912449,2.189813 c 0,-0.0091 -0.03458,-0.04369 -0.07684,-0.07684 -0.06964,-0.05461 -0.07119,-0.05306 -0.01658,0.01658 0.05736,0.07314 0.09342,0.0964 0.09342,0.06026 z M 33.286007,63.838162 C 33.054,62.821296 33.031119,61.183617 33.055795,47.361176 c 0.0131,-7.336697 0.03823,-12.183036 0.06472,-12.482416 0.06327,-0.7148 0.138773,-0.934472 0.416759,-1.212458 0.126582,-0.126581 0.368024,-0.305191 0.536539,-0.396911 0.168515,-0.09172 0.256994,-0.154065 0.19662,-0.138543 -0.205639,0.05287 -0.579992,0.304825 -0.777242,0.523122 -0.235318,0.260428 -0.42304,0.618804 -0.490464,0.936335 -0.07032,0.331164 -0.07032,28.49158 0,28.822743 0.04905,0.230995 0.289419,0.763936 0.327417,0.725939 0.01097,-0.01097 -0.0089,-0.14634 -0.04414,-0.300825 z m 3.448547,0.02903 c 0.0728,-0.155568 0.140855,-0.377854 0.151236,-0.493969 0.03841,-0.429701 0.0741,-10.967656 0.03703,-10.93291 -0.02098,0.01966 -0.05175,2.212879 -0.06838,4.873823 -0.01829,2.926253 -0.04991,5.080991 -0.08003,5.452795 -0.0443,0.546938 -0.136716,1.139675 -0.205721,1.319498 -0.01343,0.03499 -0.01138,0.06361 0.0045,0.06361 0.01593,0 0.08852,-0.127282 0.161321,-0.28285 z m 0.20137,-11.890729 c -0.01047,-0.05434 -0.01903,-0.0099 -0.01903,0.09879 0,0.108673 0.0086,0.15313 0.01903,0.09879 0.01047,-0.05434 0.01047,-0.143251 0,-0.197587 z m 9.364264,-4.368877 c -0.0013,-0.03925 -2.528331,-3.613815 -2.599628,-3.677321 -0.02711,-0.02415 0.01964,0.05488 0.103889,0.175633 0.08425,0.120748 0.60863,0.87158 1.16529,1.668516 0.55666,0.796936 1.039532,1.494809 1.073049,1.550829 0.05624,0.094 0.05078,0.110069 -0.07079,0.208347 l -0.131725,0.106491 0.230519,2.18e-4 c 0.126785,1.2e-4 0.230011,-0.0146 0.229391,-0.03271 z M 43.579,43.732679 c -0.05159,-0.07245 -0.103676,-0.131725 -0.115751,-0.131725 -0.01207,0 0.02026,0.05928 0.07184,0.131725 0.05159,0.07245 0.103676,0.131725 0.11575,0.131725 0.01208,0 -0.02025,-0.05928 -0.07184,-0.131725 z m -0.219541,-0.307358 c -0.05159,-0.07245 -0.103676,-0.131725 -0.115751,-0.131725 -0.01207,0 0.02025,0.05928 0.07184,0.131725 0.05159,0.07245 0.103676,0.131725 0.115751,0.131725 0.01208,0 -0.02025,-0.05928 -0.07184,-0.131725 z M 43.0521,42.986238 c -0.05159,-0.07245 -0.103676,-0.131725 -0.11575,-0.131725 -0.01207,0 0.02025,0.05928 0.07184,0.131725 0.05159,0.07245 0.103676,0.131725 0.115751,0.131725 0.01207,0 -0.02025,-0.05928 -0.07184,-0.131725 z m -0.219541,-0.323936 c 0,-0.0091 -0.03458,-0.0437 -0.07684,-0.07684 -0.06964,-0.05462 -0.07119,-0.05306 -0.01658,0.01658 0.05736,0.07314 0.09342,0.0964 0.09342,0.06026 z m -0.219542,-0.307359 c 0,-0.0091 -0.03458,-0.04369 -0.07684,-0.07684 -0.06964,-0.05462 -0.0712,-0.05306 -0.01658,0.01658 0.05736,0.07314 0.09342,0.0964 0.09342,0.06026 z m -0.5269,-0.746441 c 0,-0.0091 -0.03458,-0.04369 -0.07684,-0.07684 -0.06964,-0.05462 -0.07119,-0.05306 -0.01658,0.01658 0.05736,0.07314 0.09342,0.0964 0.09342,0.06026 z m -2.897948,-4.083473 c 0,-0.0091 -0.03458,-0.0437 -0.07684,-0.07684 -0.06964,-0.05462 -0.07119,-0.05306 -0.01658,0.01658 0.05736,0.07314 0.09342,0.0964 0.09342,0.06026 z m -0.219542,-0.307358 c 0,-0.0091 -0.03458,-0.04369 -0.07684,-0.07684 -0.06964,-0.05462 -0.07119,-0.05306 -0.01658,0.01658 0.05736,0.07314 0.09342,0.0964 0.09342,0.06026 z m -0.363499,-0.499345 c -0.08329,-0.11471 -0.552519,-0.771688 -1.042728,-1.459951 -1.122965,-1.576665 -1.268935,-1.760907 -1.524935,-1.924761 -0.456501,-0.292185 -0.433254,-0.216167 0.09624,0.31471 0.553152,0.554596 0.915127,1.003472 1.962243,2.433332 0.340441,0.464879 0.628351,0.845235 0.6398,0.845235 0.01145,0 -0.04733,-0.09385 -0.13062,-0.208565 z"
     id="path11"
     transform="scale(2.6666667)" />
  <path
     style="fill:#0a0a0a;fill-opacity:1;stroke:#0a0a0a;stroke-width:0.0439083;stroke-opacity:1"
     d="M 58.94626,75.840119 C 58.745625,75.556647 57.939171,74.415808 57.154142,73.304928 55.47405,70.92746 53.515288,68.159212 52.33849,66.499139 51.876271,65.847101 50.799254,64.325678 49.945119,63.118199 41.587736,51.303484 39.123638,47.835726 39.056163,47.794025 c -0.02155,-0.01332 -0.04908,0.04054 -0.06116,0.119701 -0.01209,0.07916 -0.03391,3.659127 -0.04849,7.955488 l -0.02652,7.811567 -0.133337,0.421242 c -0.417127,1.317802 -1.331883,2.254803 -2.650107,2.714554 -0.25643,0.08943 -0.420563,0.1112 -0.990563,0.131359 -0.809503,0.02863 -1.135515,-0.01755 -1.661804,-0.23541 -1.154191,-0.477779 -1.974048,-1.379019 -2.377435,-2.613429 L 30.977314,63.703043 V 48.979262 34.255481 l 0.136743,-0.387696 c 0.279935,-0.793681 0.574857,-1.255226 1.14729,-1.795483 0.43017,-0.405989 0.863117,-0.665232 1.416329,-0.848079 1.441949,-0.476592 3.042515,-0.103731 4.067081,0.947449 0.400227,0.410624 -0.135965,-0.340009 11.504495,16.105518 17.598057,24.862357 19.840478,28.033301 19.840478,28.055861 0,0.01293 -0.539414,0.0235 -1.198697,0.0235 -0.873776,0 -1.212979,-0.01428 -1.251387,-0.05269 -0.04098,-0.04098 -0.05269,-0.04098 -0.05269,-4e-6 0,0.04055 -0.837601,0.05257 -3.637951,0.05218 l -3.637952,-5.05e-4 z M 33.239667,63.640366 c -0.161337,-0.94109 -0.166623,-1.32255 -0.18528,-13.371939 -0.02069,-13.360678 0.0061,-15.668276 0.187548,-16.173622 0.02336,-0.06504 0.01837,-0.07576 -0.0192,-0.04135 -0.0279,0.02556 -0.09414,0.163869 -0.147195,0.307358 l -0.09646,0.260889 -0.01465,12.469961 c -0.0081,6.858479 0.0021,13.368984 0.02257,14.467789 l 0.03723,1.997828 0.118727,0.259223 c 0.0653,0.142572 0.128834,0.249115 0.141187,0.236762 0.01235,-0.01235 -0.0077,-0.198159 -0.04448,-0.412901 z m 3.567394,0.06118 c 0.06874,-0.172554 0.07535,-0.539778 0.07961,-4.425321 l 0.0046,-4.237152 -0.03252,3.600481 c -0.03199,3.541625 -0.06805,4.473096 -0.197163,5.093365 -0.03519,0.169047 -0.064,0.316694 -0.06402,0.328105 -9.2e-5,0.05333 0.142465,-0.191341 0.209447,-0.359478 z m 9.494254,-16.081475 c 0,-0.0318 -0.618607,-0.901624 -0.641226,-0.901624 -0.01104,0 0.07932,0.147299 0.200805,0.32733 0.121484,0.180031 0.22088,0.341767 0.22088,0.359414 0,0.01765 -0.04296,0.07781 -0.09547,0.133707 l -0.09547,0.101624 h 0.205241 c 0.112883,0 0.205241,-0.0092 0.205241,-0.02045 z m -0.834257,-1.208982 c -0.05159,-0.07245 -0.103676,-0.131725 -0.115751,-0.131725 -0.01207,0 0.02025,0.05928 0.07184,0.131725 0.05159,0.07245 0.103676,0.131725 0.115751,0.131725 0.01208,0 -0.02025,-0.05928 -0.07184,-0.131725 z M 37.862636,35.686481 c -0.05859,-0.07849 -0.380014,-0.524684 -0.714281,-0.991551 -0.721899,-1.008267 -0.947516,-1.264527 -1.260363,-1.431546 l -0.234442,-0.12516 0.486846,0.500244 c 0.477669,0.490815 0.824735,0.908539 1.464465,1.762609 0.176367,0.235458 0.330484,0.428106 0.342482,0.428106 0.012,0 -0.02612,-0.06422 -0.08471,-0.142702 z m -4.069589,-2.261278 c 0.05462,-0.06964 0.05306,-0.07119 -0.01658,-0.01658 -0.07314,0.05736 -0.0964,0.09342 -0.06026,0.09342 0.0091,0 0.04369,-0.03458 0.07684,-0.07684 z m 0.257849,-0.167746 c 0,-0.01208 -0.03952,-8.05e-4 -0.08782,0.02504 -0.0483,0.02585 -0.08782,0.05688 -0.08782,0.06895 0,0.01208 0.03952,8.05e-4 0.08782,-0.02504 0.0483,-0.02585 0.08782,-0.05688 0.08782,-0.06895 z"
     id="path12"
     transform="scale(2.6666667)" />
  <path
     style="fill:#0a0a0a;fill-opacity:1;stroke:#0a0a0a;stroke-width:0.0439083;stroke-opacity:1"
     d="m 58.36428,75.028469 c -0.517224,-0.730602 -2.596359,-3.669777 -4.620301,-6.531502 -2.023941,-2.861724 -3.890987,-5.499516 -4.14899,-5.861759 -0.258004,-0.362244 -1.167606,-1.646562 -2.021338,-2.854041 -4.640426,-6.563198 -8.219276,-11.600157 -8.467828,-11.917825 -0.08307,-0.106171 -0.0834,-0.104467 -0.109076,0.570808 -0.01417,0.372514 -0.0351,3.957248 -0.04653,7.966077 l -0.02077,7.28878 -0.131787,0.403072 c -0.227333,0.695301 -0.511674,1.18224 -0.966145,1.654538 -0.373878,0.388543 -0.727621,0.639583 -1.249805,0.886944 -0.603645,0.28595 -0.902551,0.338188 -1.806324,0.315683 -0.705424,-0.01757 -0.766547,-0.02613 -1.112349,-0.155776 C 32.39479,66.317966 31.551141,65.43336 31.10274,64.108876 l -0.125426,-0.37048 V 49.001677 34.264957 l 0.125382,-0.37048 c 0.253822,-0.75 0.565765,-1.253523 1.088237,-1.756582 0.532459,-0.512673 0.89134,-0.730242 1.543705,-0.93586 0.813671,-0.25646 1.67727,-0.249707 2.484747,0.01943 0.619369,0.206439 0.998088,0.441968 1.478389,0.919421 0.495976,0.493036 -0.01726,-0.223296 11.545626,16.11435 2.230472,3.15152 4.509984,6.372194 5.065582,7.157055 0.555599,0.784861 1.338618,1.891351 1.740043,2.458866 0.401426,0.567515 1.645878,2.326043 2.76545,3.90784 1.119571,1.581797 2.559927,3.616947 3.200792,4.522556 0.640864,0.905609 1.675801,2.367756 2.29986,3.249215 3.162034,4.466252 4.754052,6.724668 4.767045,6.762468 0.0091,0.0264 -1.79504,0.0422 -4.881543,0.04274 l -4.895941,8.56e-4 z M 33.235901,63.689007 c -0.158186,-0.925495 -0.16319,-1.299749 -0.181699,-13.589622 -0.01774,-11.781706 0.0079,-15.199031 0.118273,-15.737437 0.06132,-0.299242 0.02648,-0.298404 -0.08594,0.0021 l -0.09478,0.253313 -0.02245,11.04513 c -0.01235,6.074821 -0.0053,12.576432 0.01555,14.448024 l 0.038,3.402894 0.125251,0.275339 c 0.06889,0.151437 0.130333,0.269989 0.136543,0.26345 0.0062,-0.0065 -0.01573,-0.169959 -0.04875,-0.363156 z m 3.499033,0.142702 c 0.07053,-0.138203 0.104272,-0.311899 0.130083,-0.669602 0.04459,-0.617923 0.04366,-1.610923 -0.0017,-1.866103 -0.02564,-0.144084 -0.03677,-0.01924 -0.04111,0.461037 -0.0068,0.755637 -0.07192,1.584138 -0.15597,1.985102 -0.03184,0.151897 -0.05083,0.276177 -0.04219,0.276177 0.0086,0 0.05855,-0.08398 0.110932,-0.186611 z m 0.157858,-3.512665 c -0.0097,-0.07849 -0.01771,-0.01427 -0.01771,0.142702 0,0.156972 0.008,0.221188 0.01771,0.142702 0.0097,-0.07849 0.0097,-0.206918 0,-0.285404 z m 9.364397,-12.73341 c -1.2e-4,-0.03019 -0.04844,-0.114162 -0.107376,-0.186611 -0.09894,-0.121624 -0.105154,-0.123723 -0.08103,-0.02738 0.01787,0.07137 0.0032,0.11716 -0.0463,0.144884 -0.119582,0.06692 -0.08219,0.12399 0.08124,0.12399 0.09379,0 0.153594,-0.02139 0.153461,-0.05488 z M 37.290647,34.902381 c -0.582015,-0.829684 -1.035655,-1.384505 -1.260292,-1.541391 -0.130851,-0.09139 -0.247663,-0.156406 -0.25958,-0.144488 -0.01192,0.01192 0.157769,0.204532 0.377082,0.428032 0.44852,0.457081 0.622231,0.656417 1.019094,1.16943 0.151722,0.196127 0.283949,0.356594 0.293839,0.356594 0.0099,0 -0.06668,-0.120679 -0.170143,-0.268177 z"
     id="path13"
     transform="scale(2.6666667)" />
  <path
     style="fill:#0a0a0a;fill-opacity:1;stroke:#0a0a0a;stroke-width:0.0439083;stroke-opacity:1"
     d=""
     id="path14"
     transform="scale(2.6666667)" />
  <path
     style="fill:#0a0a0a;fill-opacity:1;stroke:#0a0a0a;stroke-width:0.0439083;stroke-opacity:1"
     d=""
     id="path15"
     transform="scale(2.6666667)" />
  <path
     style="fill:#0a0a0a;fill-opacity:1;stroke:#0a0a0a;stroke-width:0.0439083;stroke-opacity:1"
     d=""
     id="path16"
     transform="scale(2.6666667)" />
  <path
     style="fill:#0a0a0a;fill-opacity:1;stroke:#0a0a0a;stroke-width:0.0439083;stroke-opacity:1"
     d=""
     id="path17"
     transform="scale(2.6666667)" />
  <path
     style="fill:#0a0a0a;fill-opacity:1;stroke:#0a0a0a;stroke-width:0.0439083;stroke-opacity:1"
     d=""
     id="path18"
     transform="scale(2.6666667)" />
  <path
     style="fill:#0a0a0a;fill-opacity:1;stroke:#0a0a0a;stroke-width:0.0439083;stroke-opacity:1"
     d=""
     id="path19"
     transform="scale(2.6666667)" />
  <path
     style="fill:#0a0a0a;fill-opacity:1;stroke:#0a0a0a;stroke-width:0.0439083;stroke-opacity:1"
     d="M 59.245653,76.279716 C 59.20928,76.237454 58.58029,75.35325 57.847898,74.314819 51.36548,65.123642 39.380908,48.223919 39.144575,47.940831 l -0.121415,-0.145436 -0.02685,1.47033 c -0.01476,0.808681 -0.03494,4.394624 -0.04482,7.96876 l -0.01798,6.498431 -0.129777,0.37322 c -0.427756,1.230167 -1.2317,2.12285 -2.334431,2.592104 -0.496426,0.211248 -0.788298,0.260639 -1.540239,0.260639 -0.790833,0 -1.073601,-0.05318 -1.603704,-0.301592 -1.09919,-0.515098 -1.834652,-1.362378 -2.233526,-2.573105 l -0.115725,-0.351266 0.01158,-14.819056 0.01158,-14.819055 0.186196,-0.46244 c 0.51581,-1.281073 1.502346,-2.17196 2.777615,-2.508313 0.526651,-0.138905 1.395925,-0.140046 1.945197,-0.0026 0.959307,0.240131 1.638491,0.715756 2.333466,1.634102 0.588986,0.778292 1.858895,2.568691 18.296893,25.796134 12.589501,17.789387 12.549873,17.733272 12.550532,17.771889 3.09e-4,0.01811 -2.199476,0.03293 -4.88841,0.03293 -4.601698,0 -4.892858,-0.0045 -4.955105,-0.07684 z M 33.196177,63.444419 c -0.142065,-1.018562 -0.161679,-3.216429 -0.142214,-15.935625 0.01406,-9.189065 0.03259,-12.555767 0.07077,-12.859614 0.02845,-0.226384 0.04385,-0.419479 0.03423,-0.4291 -0.0096,-0.0096 -0.04847,0.08669 -0.08634,0.214019 -0.06143,0.206595 -0.07069,1.327938 -0.08604,10.418242 -0.0095,5.602701 -0.005,12.093447 0.01,14.423881 l 0.02719,4.237152 0.102719,0.231553 c 0.0565,0.127354 0.110851,0.223421 0.120789,0.213483 0.0099,-0.0099 -0.01306,-0.241234 -0.0511,-0.513991 z m 3.566873,0.321428 c 0.0612,-0.137705 0.0744,-0.344337 0.08063,-1.262364 l 0.0075,-1.097708 -0.03424,0.812304 c -0.03127,0.741908 -0.0894,1.33178 -0.158268,1.60618 -0.04062,0.161836 0.02214,0.126728 0.104418,-0.05841 z m 9.469576,-16.164663 c 0.01337,-0.02163 -0.01444,-0.08585 -0.06181,-0.142702 -0.07356,-0.08829 -0.08633,-0.09196 -0.08758,-0.02515 -8.04e-4,0.04302 -0.03099,0.08955 -0.06707,0.103395 -0.03608,0.01385 -0.05468,0.04287 -0.04132,0.06448 0.03153,0.05102 0.226242,0.051 0.257779,-2.7e-5 z m -9.17916,-13.012411 c -0.553999,-0.767894 -0.916925,-1.182142 -1.134062,-1.294427 -0.08874,-0.04589 0.0169,0.09249 0.330032,0.432345 0.253301,0.274911 0.567233,0.63321 0.697628,0.79622 0.282565,0.353242 0.338883,0.388103 0.106402,0.06586 z"
     id="path20"
     transform="scale(2.6666667)" />
  <path
     style="fill:#0a0a0a;fill-opacity:1;stroke:#0a0a0a;stroke-width:0.0439083;stroke-opacity:1"
     d="M 59.128804,76.126037 C 59.034086,75.999251 57.587889,73.959161 55.915034,71.592503 44.867544,55.963157 39.112352,47.860061 39.059161,47.860061 c -0.05243,0 -0.09024,3.730289 -0.09476,9.348705 -0.0023,2.887945 -0.01788,5.576828 -0.03457,5.975296 -0.02948,0.704061 -0.03499,0.735936 -0.195549,1.130582 -0.507433,1.247283 -1.281706,2.017319 -2.495283,2.481629 l -0.365908,0.139995 -0.922074,9.77e-4 c -1.019982,0.0011 -1.103723,-0.01449 -1.712424,-0.318482 -1.073491,-0.536107 -1.761064,-1.349831 -2.178746,-2.578489 l -0.104487,-0.307358 0.01589,-14.797102 0.01589,-14.797101 0.151225,-0.395175 c 0.514287,-1.343907 1.500949,-2.266107 2.80277,-2.619653 0.501754,-0.136265 1.512088,-0.135507 2.019782,0.0015 0.973599,0.262768 1.642102,0.752703 2.36805,1.735503 0.807053,1.092601 3.805769,5.321114 17.471736,24.63703 1.110575,1.569722 2.515988,3.555476 3.123141,4.412786 0.607152,0.857309 1.628184,2.299697 2.268959,3.205306 0.640775,0.905609 1.885552,2.664137 2.766172,3.90784 3.505876,4.951365 5.089841,7.201561 5.114403,7.26557 0.02301,0.05997 -0.495858,0.06712 -4.873296,0.06712 H 59.301021 Z M 33.188378,63.458489 C 33.05154,62.422045 33.034215,60.346148 33.056,47.596611 c 0.01246,-7.29381 0.03874,-12.797934 0.06194,-12.974907 0.02216,-0.169047 0.03423,-0.315038 0.02682,-0.324424 -0.0074,-0.0094 -0.03873,0.04001 -0.06959,0.10977 -0.04518,0.102116 -0.05611,2.951041 -0.05611,14.616581 v 14.489743 l 0.09969,0.18661 c 0.05483,0.102636 0.105643,0.186611 0.112925,0.186611 0.0073,0 -0.0122,-0.192648 -0.04328,-0.428106 z m 3.56743,0.270308 c 0.05989,-0.143346 0.135337,-1.204205 0.08183,-1.1507 -0.01132,0.01132 -0.04183,0.236273 -0.06779,0.499887 -0.02596,0.263614 -0.06336,0.553394 -0.08311,0.643954 -0.04537,0.207981 -0.01617,0.210879 0.06907,0.0069 z m 9.442971,-16.12216 c 0.03798,-0.02416 0.03515,-0.0544 -0.01098,-0.11749 -0.06136,-0.08392 -0.06288,-0.08392 -0.124088,-2.07e-4 -0.09243,0.126408 -0.0022,0.20503 0.135065,0.117697 z M 36.808871,34.264829 c -0.279932,-0.391123 -0.696727,-0.849602 -0.837587,-0.921354 -0.119231,-0.06074 -0.09595,-0.02377 0.144652,0.229702 0.157715,0.166147 0.403268,0.435458 0.545674,0.598467 0.142407,0.16301 0.266519,0.296381 0.275806,0.296381 0.0093,0 -0.04856,-0.09144 -0.128545,-0.203196 z"
     id="path21"
     transform="scale(2.6666667)" />
  <path
     style="fill:#0a0a0a;fill-opacity:1;stroke:#0a0a0a;stroke-width:0.0439083;stroke-opacity:1"
     d="M 59.20653,76.256383 C 59.1682,76.202806 57.243413,73.481659 54.929227,70.209392 52.61504,66.937125 50.441304,63.86464 50.098701,63.381649 49.756099,62.898658 48.244278,60.764714 46.739098,58.639551 43.561445,54.153024 40.473329,49.806593 39.652195,48.664947 l -0.573797,-0.797767 -0.0309,0.205005 c -0.01699,0.112752 -0.04181,3.237971 -0.05515,6.94493 -0.03132,8.702275 -0.03067,8.668235 -0.173166,9.081224 -0.339626,0.984313 -0.878271,1.710191 -1.665139,2.243941 -0.288742,0.195859 -0.881481,0.469014 -1.194893,0.550647 -0.341681,0.089 -1.590509,0.09119 -2.004166,0.0035 -0.585081,-0.124002 -1.467337,-0.65259 -1.92497,-1.153314 -0.427604,-0.467867 -0.666899,-0.877838 -0.942681,-1.615044 l -0.164257,-0.439083 0.02301,-14.775147 0.02301,-14.775147 0.133692,-0.337518 c 0.293184,-0.740169 0.572992,-1.181829 1.045503,-1.650262 0.523781,-0.51926 1.111848,-0.853164 1.840455,-1.045008 0.438487,-0.115454 1.455203,-0.115793 1.906303,-6.34e-4 0.997432,0.254627 1.662157,0.722179 2.377483,1.672264 0.484418,0.643398 2.568261,3.571009 7.157045,10.055004 1.928452,2.724921 5.584275,7.889986 8.593127,12.140648 9.186407,12.97781 14.012363,19.801059 14.686154,20.764232 0.209482,0.299451 0.380876,0.561254 0.380876,0.581786 0,0.02053 -2.20804,0.03671 -4.906754,0.03595 l -4.906754,-0.0014 z M 33.171451,63.374576 c -0.02861,-0.237606 -0.06652,-0.827185 -0.08426,-1.310176 l -0.03224,-0.878167 -0.007,1.173058 c -0.006,1.017291 0.0028,1.193589 0.06676,1.327675 0.04055,0.08504 0.08161,0.146743 0.09123,0.137119 0.0096,-0.0096 -0.0059,-0.211904 -0.03452,-0.449509 z m 3.627375,-0.08926 c 0.01253,-0.416163 0.0117,-0.420544 -0.02496,-0.130977 -0.02086,0.164772 -0.05133,0.382118 -0.06772,0.482992 -0.02369,0.145816 -0.01857,0.17266 0.02496,0.130976 0.03445,-0.03299 0.05956,-0.212071 0.06772,-0.482991 z M 46.213499,47.5506 c 0,-0.07033 -0.09219,-0.09283 -0.157681,-0.03848 -0.04965,0.04121 -0.05288,0.06291 -0.01304,0.08753 0.06049,0.03739 0.170717,0.0057 0.170717,-0.04905 z M 33.02998,37.834965 c -0.0069,-0.559815 -0.01262,-0.08918 -0.01261,1.045846 9e-6,1.13503 0.0057,1.59306 0.01263,1.017844 0.0069,-0.575215 0.0069,-1.503876 -1.6e-5,-2.06369 z m 0.06608,-2.488773 c 0.0089,-0.543366 0.0021,-0.938541 -0.01509,-0.878167 -0.01717,0.06037 -0.03089,0.534584 -0.03049,1.0538 3.94e-4,0.519216 0.0072,0.91439 0.01509,0.878166 0.0079,-0.03622 0.02163,-0.510434 0.03049,-1.053799 z m 3.528327,-1.306273 c -0.218279,-0.277541 -0.641522,-0.708611 -0.641522,-0.653384 0,0.03519 0.790911,0.905857 0.822873,0.905857 0.0095,0 -0.07214,-0.113613 -0.181351,-0.252473 z"
     id="path22"
     transform="scale(2.6666667)" />
  <path
     style="fill:#0a0a0a;fill-opacity:1;stroke:#0a0a0a;stroke-width:0.0439083;stroke-opacity:1"
     d="M 54.509721,69.627606 C 44.403409,55.34117 39.104502,47.883074 39.080541,47.911374 c -0.04581,0.05411 -0.07029,2.242078 -0.09275,8.291266 -0.01412,3.803558 -0.04202,7.103651 -0.06199,7.333542 -0.05699,0.656015 -0.410935,1.443141 -0.928701,2.0653 -0.450815,0.541709 -1.237181,1.051205 -1.962462,1.271502 -0.291154,0.08844 -0.388248,0.09482 -1.205089,0.07921 l -0.88842,-0.01698 -0.387422,-0.160618 c -1.224287,-0.507563 -2.003142,-1.34563 -2.484485,-2.673358 l -0.13708,-0.378119 0.01161,-14.792203 0.01161,-14.792203 0.114658,-0.285404 c 0.312484,-0.77783 0.678227,-1.346748 1.141562,-1.775715 0.743941,-0.688757 1.517207,-1.015064 2.519895,-1.063359 1.181777,-0.05692 2.18131,0.309397 2.975093,1.090336 0.485004,0.477155 -0.499032,-0.90332 19.572037,27.457055 12.079287,17.068004 11.811125,16.687451 11.811125,16.761414 0,0.01843 -2.20948,0.03351 -4.909955,0.03351 H 59.26982 Z m -21.339237,-6.24835 c -0.02399,-0.21603 -0.06021,-0.58049 -0.08049,-0.809911 l -0.03687,-0.417129 -0.0061,0.66424 c -0.0047,0.512927 0.0095,0.70155 0.06238,0.828026 0.03764,0.09008 0.07659,0.155636 0.08655,0.145672 0.01,-0.01 -0.0015,-0.194868 -0.02551,-0.410898 z m 3.602728,0.146163 c 0,-0.222943 -0.02409,-0.204393 -0.05564,0.04285 -0.01359,0.106473 -0.0068,0.176075 0.01591,0.162065 0.02185,-0.01351 0.03973,-0.105717 0.03973,-0.204915 z m 9.42931,-15.983694 c -0.01006,-0.03019 -0.04464,-0.05488 -0.07684,-0.05488 -0.0322,0 -0.06678,0.0247 -0.07684,0.05488 -0.01088,0.03265 0.02025,0.05489 0.07684,0.05489 0.05659,0 0.08772,-0.02224 0.07684,-0.05489 z M 33.114908,34.503701 c -0.01402,-0.03503 -0.02442,-0.02462 -0.02653,0.02653 -0.0019,0.04629 0.0085,0.07222 0.02306,0.05763 0.01459,-0.01459 0.01615,-0.05246 0.0035,-0.08416 z m 3.359923,-0.639415 c -0.204495,-0.243948 -0.360244,-0.390865 -0.360244,-0.339814 0,0.0466 0.449369,0.536898 0.498057,0.54342 0.02036,0.0027 -0.04166,-0.0889 -0.137813,-0.203606 z"
     id="path23"
     transform="scale(2.6666667)" />
  <path
     style="fill:#0a0a0a;fill-opacity:1;stroke:#0a0a0a;stroke-width:0.0439083;stroke-opacity:1"
     d="M 58.15213,74.786833 C 57.540927,73.923486 56.781844,72.851574 56.465279,72.404807 56.148714,71.95804 55.533341,71.088656 55.097783,70.472841 44.303724,55.211632 39.144317,47.949815 39.094641,47.948571 c -0.04749,-0.0012 -0.08083,2.912394 -0.105253,9.198098 -0.01295,3.332641 -0.03451,6.197658 -0.04791,6.366705 -0.07675,0.968151 -0.815454,2.174619 -1.707102,2.788089 -0.272618,0.187566 -0.816743,0.455478 -1.154584,0.568484 -0.244068,0.08164 -0.378313,0.0924 -1.151163,0.09227 -0.961002,-1.6e-4 -1.111292,-0.02852 -1.685604,-0.31808 -1.054839,-0.531836 -1.727826,-1.317346 -2.180511,-2.545094 l -0.12911,-0.350166 V 48.956736 34.164594 l 0.197327,-0.461989 c 0.265752,-0.622185 0.512465,-1.022441 0.868219,-1.408556 0.861773,-0.93532 1.883388,-1.345965 3.189913,-1.282207 1.098215,0.05359 2.092828,0.539237 2.769411,1.352234 0.50725,0.609523 0.960586,1.246439 14.13916,19.864862 16.560274,23.396017 16.992294,24.008209 16.992294,24.078822 0,0.0355 -1.338846,0.04879 -4.913161,0.04879 H 59.263408 Z M 33.147968,63.26242 c -0.04564,-0.643814 -0.110263,-0.780209 -0.08913,-0.188129 0.01582,0.443136 0.04626,0.63667 0.100154,0.63667 0.01143,0 0.0065,-0.201843 -0.01103,-0.448541 z m 3.610415,0.261931 c -0.01218,-0.03019 -0.02215,-0.0055 -0.02215,0.05488 0,0.06037 0.01,0.08507 0.02215,0.05489 0.01218,-0.03019 0.01218,-0.07958 0,-0.109771 z m 9.411208,-15.971649 c 0,-0.02415 -0.01859,-0.04391 -0.04132,-0.04391 -0.02272,0 -0.05353,0.01976 -0.06845,0.04391 -0.01493,0.02415 0.0037,0.04391 0.04132,0.04391 0.03765,0 0.06845,-0.01976 0.06845,-0.04391 z M 36.376433,33.763467 c -0.07739,-0.09771 -0.151794,-0.166571 -0.165344,-0.153021 -0.0221,0.0221 0.247608,0.33068 0.289022,0.33068 0.0094,0 -0.04629,-0.07995 -0.123678,-0.177659 z"
     id="path24"
     transform="scale(2.6666667)" />
  <path
     style="fill:#0a0a0a;fill-opacity:1;stroke:#0a0a0a;stroke-width:0.0439083;stroke-opacity:1"
     d="M 59.152961,76.213853 C 59.094784,76.135367 58.188154,74.855989 57.138226,73.37079 50.071108,63.373837 43.405176,53.96764 40.87975,50.428697 c -1.890261,-2.64887 -1.797662,-2.528146 -1.810237,-2.360072 -0.0032,0.04226 -0.0267,3.337032 -0.0523,7.321711 -0.05558,8.650722 -0.04865,8.334012 -0.191167,8.737754 -0.485287,1.374807 -1.381202,2.269526 -2.75537,2.751693 -0.206636,0.0725 -0.366592,0.0849 -1.108115,0.08585 -0.981209,0.0013 -1.132276,-0.02696 -1.721088,-0.321479 -0.498196,-0.249192 -0.836749,-0.501203 -1.213812,-0.903533 -0.383078,-0.408749 -0.663108,-0.86755 -0.913334,-1.496409 l -0.180924,-0.454691 3.67e-4,-14.825402 3.68e-4,-14.825402 0.210878,-0.487586 c 0.610817,-1.412307 1.67896,-2.335659 2.987567,-2.582589 1.122551,-0.211822 2.258687,0.02484 3.145571,0.655246 0.634612,0.451085 0.461162,0.216509 7.288755,9.857388 1.855624,2.620228 3.989585,5.633436 4.742134,6.696018 2.391253,3.376389 11.97583,16.919684 15.16405,21.427256 1.187518,1.678938 3.545185,5.020209 4.21363,5.971531 0.220592,0.313944 0.401511,0.595506 0.40204,0.625693 7.65e-4,0.04359 -1.010894,0.05488 -4.914533,0.05488 H 59.258737 Z M 33.147425,63.326764 c -0.01644,-0.211309 -0.0471,-0.413836 -0.06814,-0.450061 -0.03668,-0.06316 -0.01661,0.373173 0.03181,0.691556 0.04311,0.283445 0.06555,0.134228 0.03633,-0.241495 z M 46.169591,47.552702 c 0,-0.02415 -0.01976,-0.04391 -0.04391,-0.04391 -0.02415,0 -0.04391,0.01976 -0.04391,0.04391 0,0.02415 0.01976,0.04391 0.04391,0.04391 0.02415,0 0.04391,-0.01976 0.04391,-0.04391 z"
     id="path25"
     transform="scale(2.6666667)" />
  <path
     style="fill:#0a0a0a;fill-opacity:1;stroke:#0a0a0a;stroke-width:0.0439083;stroke-opacity:1"
     d="M 54.665849,69.892379 C 46.437937,58.252914 39.885694,49.020966 39.316321,48.265277 l -0.207471,-0.275362 -0.02494,0.2095 c -0.01372,0.115224 -0.03536,2.116218 -0.0481,4.446652 -0.0492,9.000087 -0.0717,10.8963 -0.132873,11.196619 -0.141004,0.692256 -0.618061,1.516986 -1.197966,2.071024 -0.383755,0.366637 -0.775328,0.618016 -1.332479,0.855417 -0.319831,0.13628 -0.436246,0.161546 -0.894579,0.194157 -0.788035,0.05607 -1.507498,-0.003 -1.888057,-0.155023 -0.519754,-0.207625 -0.980164,-0.506158 -1.401984,-0.909057 -0.472186,-0.451006 -0.777519,-0.912961 -1.05926,-1.602609 l -0.194403,-0.475863 -4.03e-4,-14.851107 -4.03e-4,-14.851108 0.20699,-0.472894 c 0.620579,-1.417785 1.656873,-2.311321 2.995072,-2.582475 0.456665,-0.09253 1.409704,-0.06845 1.847394,0.04669 0.648911,0.170695 1.325216,0.564111 1.784578,1.038116 0.511941,0.528257 0.419125,0.398068 18.589117,26.074472 13.088149,18.495143 12.733173,17.990979 12.733173,18.084565 0,0.03654 -1.295643,0.049 -4.928708,0.04741 l -4.928709,-0.0022 z m -21.538404,-6.620501 -0.02914,-0.285404 -0.0067,0.226928 c -0.0057,0.191757 0.02748,0.40094 0.05652,0.356751 0.0047,-0.0071 -0.0047,-0.141303 -0.02068,-0.298275 z M 46.147636,47.552702 c 0.01493,-0.02415 0.0062,-0.04391 -0.01936,-0.04391 -0.02557,0 -0.0465,0.01976 -0.0465,0.04391 0,0.02415 0.0087,0.04391 0.01936,0.04391 0.01065,0 0.03157,-0.01976 0.0465,-0.04391 z"
     id="path26"
     transform="scale(2.6666667)" />
  <path
     style="fill:#0a0a0a;fill-opacity:1;stroke:#0a0a0a;stroke-width:0.0439083;stroke-opacity:1"
     d="m 60.934564,58.116675 -3.961922,-5.580379 -4.72e-4,-9.923279 c -3.2e-4,-6.741201 0.01436,-10.014798 0.04577,-10.208682 0.127142,-0.784771 0.510693,-1.554947 1.064952,-2.138437 1.261643,-1.328182 3.235173,-1.617821 4.84597,-0.711205 0.472627,0.266012 1.19187,0.984936 1.457415,1.456768 0.231168,0.410748 0.423755,0.952622 0.487239,1.370919 0.03243,0.213665 0.04304,5.033396 0.03481,15.811017 l -0.01184,15.503657 z M 62.976021,45.08286 c -0.0086,-9.313592 -0.02435,-12.508795 -0.06215,-12.590709 -0.03845,-0.08333 -0.05472,2.830991 -0.06756,12.09674 -0.01382,9.97402 -0.02751,12.23284 -0.07483,12.350468 l -0.05792,0.143957 -0.09691,-0.100049 C 62.4937,56.856333 62.066111,56.257084 60.385356,53.856192 l -1.350629,-1.929318 -0.0044,-9.772247 c -0.0024,-5.374736 -0.0202,-9.72285 -0.03953,-9.662476 -0.01933,0.06037 -0.03712,4.463898 -0.03953,9.785607 l -0.0044,9.675837 1.986852,2.803355 c 1.092768,1.541846 2.001906,2.804142 2.020306,2.805102 0.0184,9.6e-4 0.02828,-5.614676 0.02195,-12.479192 z M 62.76247,32.085999 c -0.236429,-0.453894 -0.706817,-0.856023 -1.167926,-0.998445 -0.353795,-0.109276 -0.514318,-0.114462 -0.201935,-0.0065 0.313032,0.108162 0.538281,0.2698 1.001103,0.718389 0.217346,0.210662 0.40081,0.383551 0.407697,0.384198 0.0069,6.46e-4 -0.01064,-0.04328 -0.03894,-0.09762 z m -2.682378,-0.797837 c 0.103644,-0.07053 0.291192,-0.163739 0.416774,-0.207131 0.125581,-0.04339 0.193129,-0.07954 0.150105,-0.08033 -0.128174,-0.0023 -0.59642,0.169352 -0.782937,0.287095 -0.09552,0.0603 -0.251361,0.187325 -0.346316,0.28228 -0.161699,0.161698 -0.395175,0.489154 -0.395175,0.554241 0,0.016 0.173049,-0.13674 0.384553,-0.339417 0.211504,-0.202677 0.469352,-0.42621 0.572996,-0.496739 z"
     id="path27"
     transform="scale(2.6666667)" />
  <path
     style="fill:#0a0a0a;fill-opacity:1;stroke:#0a0a0a;stroke-width:0.0439083;stroke-opacity:1"
     d="m 60.933761,58.12577 -3.962726,-5.583149 v -9.931667 c 0,-10.92267 -0.01474,-10.312651 0.266801,-11.042707 0.355371,-0.921508 1.1763,-1.785979 2.089025,-2.199829 0.706259,-0.320233 1.632756,-0.424051 2.386713,-0.267441 0.787642,0.163607 1.397574,0.484866 1.969248,1.037227 0.546506,0.528042 0.864565,1.043369 1.092515,1.770117 l 0.121149,0.386243 0.01141,13.304218 c 0.0063,7.317321 0.0063,14.385551 0,15.707178 l -0.01141,2.40296 z m 2.033786,-12.845323 c -0.01112,-7.518998 -0.03421,-12.307179 -0.05987,-12.415075 -0.02683,-0.112859 -0.04508,3.794868 -0.05104,10.93317 -0.0089,10.691009 -0.028,13.108065 -0.104327,13.228095 -0.01945,0.03058 -0.05508,0.04341 -0.07918,0.02852 -0.08152,-0.05038 -0.547285,-0.701232 -2.599227,-3.632109 l -1.039177,-1.484302 -6.72e-4,-8.548748 c -4.28e-4,-5.443356 -0.01613,-8.572673 -0.04324,-8.614611 -0.02756,-0.04265 -0.0428,2.971797 -0.04324,8.551443 l -6.73e-4,8.617306 1.895475,2.667131 c 2.230742,3.138889 2.06386,2.908626 2.108031,2.908626 0.01938,0 0.02709,-5.507749 0.01713,-12.239442 z M 59.030968,33.43618 c -0.0014,-0.57975 -0.0175,-0.930871 -0.04015,-0.878166 -0.05412,0.125952 -0.05412,1.993762 0,1.910011 0.02439,-0.03774 0.04153,-0.47827 0.04015,-1.031845 z m 1.239046,-2.260263 c 0.317121,-0.16186 0.152363,-0.145144 -0.215791,0.02189 -0.275525,0.125011 -0.695555,0.512083 -0.842292,0.776201 -0.09513,0.171228 -0.06374,0.149485 0.336813,-0.233293 0.286488,-0.273775 0.539962,-0.472262 0.72127,-0.564802 z m 2.371057,0.732959 c -0.146818,-0.237557 -0.556587,-0.598122 -0.807074,-0.710162 -0.366015,-0.163715 -0.474035,-0.173276 -0.192953,-0.01708 0.141472,0.07862 0.437853,0.31463 0.658624,0.524474 0.220771,0.209843 0.408596,0.374793 0.417388,0.366555 0.0088,-0.0082 -0.0254,-0.08194 -0.07599,-0.163789 z"
     id="path28"
     transform="scale(2.6666667)" />
  <path
     style="fill:#0a0a0a;fill-opacity:1;stroke:#0a0a0a;stroke-width:0.0439083;stroke-opacity:1"
     d="m 63.294643,61.466889 c -0.881013,-1.241092 -1.966507,-2.770257 -2.412208,-3.398146 -0.445701,-0.627889 -1.46175,-2.060397 -2.257887,-3.183352 -0.796137,-1.122956 -1.49387,-2.102878 -1.550517,-2.177606 l -0.102996,-0.13587 1.68e-4,-9.941088 c 1.38e-4,-8.241726 0.01052,-10.004888 0.06076,-10.314309 0.12096,-0.745108 0.482225,-1.45661 1.031749,-2.032003 0.545428,-0.571104 1.059923,-0.891143 1.792254,-1.114863 0.350396,-0.107042 0.451446,-0.117993 1.088777,-0.117993 0.63718,0 0.738429,0.01097 1.088413,0.117888 0.86614,0.264609 1.588065,0.770671 2.143449,1.502533 0.209134,0.275588 0.523155,0.944868 0.64795,1.380988 l 0.09423,0.329312 -0.01115,15.670519 -0.01115,15.67052 z M 62.942566,45.854914 c 0,-6.415736 -0.01482,-11.650157 -0.03293,-11.632047 -0.01811,0.01811 -0.04392,5.114219 -0.05734,11.324685 -0.01899,8.781844 -0.0364,11.320106 -0.07833,11.419291 l -0.05392,0.127533 -0.138249,-0.127533 c -0.133293,-0.122961 -0.132129,-0.118876 0.03249,0.113963 0.09391,0.132823 0.201247,0.285332 0.238536,0.33891 0.03729,0.05358 0.07274,0.09803 0.07878,0.09879 0.006,7.58e-4 0.01098,-5.247859 0.01098,-11.663596 z m -0.482992,10.945864 c 0,-0.0091 -0.03458,-0.04369 -0.07684,-0.07684 -0.06964,-0.05462 -0.07119,-0.05306 -0.01658,0.01658 0.05736,0.07314 0.09342,0.0964 0.09342,0.06026 z M 61.27405,55.132262 c 0,-0.0091 -0.03458,-0.04369 -0.07684,-0.07684 -0.06964,-0.05462 -0.07119,-0.05306 -0.01658,0.01658 0.05736,0.07314 0.09342,0.0964 0.09342,0.06026 z m -0.307358,-0.422505 c -0.05159,-0.07245 -0.103676,-0.131725 -0.115751,-0.131725 -0.01207,0 0.02025,0.05928 0.07184,0.131725 0.05159,0.07245 0.103675,0.131725 0.11575,0.131725 0.01208,0 -0.02025,-0.05928 -0.07184,-0.131725 z m -0.209968,-0.296381 c -0.04632,-0.06641 -0.452722,-0.647574 -0.903111,-1.291472 l -0.818887,-1.170724 -0.0051,-7.545076 c -0.0028,-4.149792 -0.01957,-7.673508 -0.03721,-7.83048 -0.01764,-0.156972 -0.03509,3.23309 -0.03878,7.53347 l -0.0067,7.818874 0.925382,1.303078 c 0.50896,0.716693 0.935118,1.303078 0.947019,1.303078 0.0119,0 -0.01626,-0.05434 -0.06259,-0.120748 z M 59.028859,33.392272 c 0.0025,-0.217347 -0.01463,-0.424813 -0.03804,-0.461038 -0.02852,-0.04413 -0.04107,0.129718 -0.03804,0.5269 0.005,0.654283 0.06847,0.599333 0.07608,-0.06586 z m 0.608179,-1.738266 c 0.210324,-0.195334 0.459142,-0.3943 0.552928,-0.442146 0.09379,-0.04785 0.160725,-0.09679 0.148753,-0.108759 -0.05142,-0.05142 -0.590603,0.274759 -0.799486,0.483641 -0.209921,0.209921 -0.365003,0.422418 -0.308284,0.422418 0.01302,0 0.195764,-0.159819 0.406089,-0.355154 z m 2.967721,0.218662 c -0.111243,-0.191418 -0.47455,-0.509555 -0.729356,-0.638675 -0.1182,-0.0599 -0.22283,-0.100984 -0.23251,-0.0913 -0.0097,0.0097 0.08614,0.0892 0.21293,0.17672 0.126792,0.08752 0.348465,0.278512 0.492606,0.424435 0.289302,0.292879 0.377401,0.337155 0.25633,0.128824 z"
     id="path29"
     transform="scale(2.6666667)" />
  <path
     style="fill:#0a0a0a;fill-opacity:1;stroke:#0a0a0a;stroke-width:0.0439083;stroke-opacity:1"
     d="m 64.162696,62.702395 c -0.403584,-0.568244 -2.186422,-3.0782 -3.961861,-5.577681 l -3.228071,-4.54451 0.01114,-10.14282 c 0.01249,-11.376095 -0.02008,-10.310492 0.338557,-11.07581 0.506509,-1.080862 1.428024,-1.87311 2.570059,-2.20954 0.380836,-0.112189 1.23541,-0.159098 1.666938,-0.0915 0.846677,0.13263 1.611224,0.532069 2.244092,1.172431 0.457764,0.463186 0.787506,1.03485 1.000622,1.734753 l 0.114394,0.375686 -0.01104,15.696081 -0.01104,15.696081 z M 62.933783,47.102642 c -0.0048,-5.705336 -0.0213,-9.56323 -0.03659,-8.573098 -0.01529,0.990133 -0.03109,5.099951 -0.0351,9.132929 -0.0068,6.88048 -0.02293,8.778752 -0.07822,9.233732 -0.02057,0.169279 -0.03263,0.185539 -0.117601,0.15857 -0.08744,-0.02775 -0.08498,-0.017 0.03223,0.140693 0.195039,0.262407 0.209723,0.280513 0.227489,0.280513 0.0091,0 0.01263,-4.668002 0.0078,-10.373339 z m -3.444179,5.510493 c -0.16272,-0.235458 -0.331635,-0.475228 -0.375366,-0.532821 -0.07574,-0.09974 -0.07972,-0.372949 -0.08387,-5.751989 -0.0024,-3.106 -0.0191,-5.815223 -0.03711,-6.020494 -0.01801,-0.205272 -0.03581,2.320697 -0.03955,5.613264 l -0.0068,5.986485 0.397968,0.566831 c 0.218882,0.311757 0.407556,0.56683 0.419275,0.56683 0.01172,0 -0.111828,-0.192647 -0.274547,-0.428106 z m 3.140735,-20.70089 c -0.125178,-0.233898 -0.827115,-0.798162 -0.900996,-0.724281 -0.01305,0.01305 0.01463,0.04426 0.06152,0.06935 0.04689,0.02509 0.259203,0.204522 0.471816,0.398733 0.212612,0.19421 0.393985,0.353109 0.403049,0.353109 0.0091,0 -0.0069,-0.04361 -0.03538,-0.09692 z m -2.91031,-0.349812 c 0.01482,-0.02398 0.145485,-0.130862 0.290368,-0.237519 0.291691,-0.214731 0.297703,-0.240523 0.02345,-0.10061 -0.193466,0.0987 -0.668116,0.526899 -0.746588,0.673526 -0.04439,0.08295 0.375186,-0.242227 0.432768,-0.335397 z"
     id="path30"
     transform="scale(2.6666667)" />
  <path
     style="fill:#0a0a0a;fill-opacity:1;stroke:#0a0a0a;stroke-width:0.0439083;stroke-opacity:1"
     d="m 60.933761,58.166747 -3.962726,-5.581439 1.77e-4,-9.969739 c 2.01e-4,-11.377234 -0.02976,-10.468842 0.372499,-11.293307 0.585376,-1.199775 1.620135,-2.016651 2.832631,-2.23618 1.327375,-0.240328 2.629233,0.153732 3.560379,1.077693 0.527355,0.523285 0.80477,0.98645 1.066053,1.779854 l 0.115788,0.351599 -0.01104,15.726479 -0.01104,15.726479 z m 1.999363,-8.429606 c -0.0052,-4.232213 -0.0204,-7.210843 -0.0338,-6.619178 -0.0134,0.591664 -0.02901,3.674028 -0.0347,6.849697 -0.01197,6.69013 -0.02199,7.113146 -0.16839,7.113146 -0.05016,0 -0.03604,0.04336 0.05687,0.174696 0.06798,0.09608 0.138414,0.175118 0.156527,0.175633 0.01811,5.16e-4 0.02868,-3.461782 0.02349,-7.693994 z M 59.034726,47.86373 c -0.01207,-2.292214 -0.03677,-4.182476 -0.05488,-4.200583 -0.01811,-0.01811 -0.03293,1.833622 -0.03293,4.114951 0,3.926756 0.0082,4.252326 0.107576,4.253273 0.0012,1.2e-5 -0.0077,-1.875427 -0.01976,-4.167641 z m 3.894199,-6.139856 c -0.01104,-0.04226 -0.02008,-0.0077 -0.02008,0.07684 0,0.08452 0.009,0.119102 0.02008,0.07684 0.01104,-0.04226 0.01104,-0.111417 0,-0.15368 z m 0.0024,-2.900284 c -0.0079,-0.234174 -0.01429,-0.0306 -0.01426,0.452395 3.9e-5,0.482992 0.0065,0.674588 0.01433,0.425771 0.0078,-0.248818 0.0078,-0.643993 -7e-5,-0.878166 z M 62.63517,31.941416 c 0,-0.09667 -0.761002,-0.76659 -0.812415,-0.715177 -0.01315,0.01315 0.766928,0.730461 0.801438,0.736949 0.006,0.0011 0.01098,-0.0087 0.01098,-0.02177 z m -2.664137,-0.604362 0.139409,-0.123252 -0.134476,0.06524 c -0.165408,0.08025 -0.574456,0.443375 -0.642355,0.570244 -0.04403,0.08228 0.0549,0.0028 0.637422,-0.512233 z"
     id="path31"
     transform="scale(2.6666667)" />
  <path
     style="fill:#0a0a0a;fill-opacity:1;stroke:#0a0a0a;stroke-width:0.0439083;stroke-opacity:1"
     d="M 63.297316,61.506199 C 62.417772,60.267637 61.3891,58.819575 61.011378,58.288285 60.633656,57.756994 59.932083,56.769057 59.452327,56.092869 58.972571,55.416681 58.217689,54.354055 57.774812,53.731477 l -0.805231,-1.13196 0.01282,-10.17443 c 0.01195,-9.483081 0.01798,-10.193285 0.08874,-10.451888 0.176667,-0.645631 0.686487,-1.471851 1.184856,-1.92019 0.467529,-0.420594 0.923775,-0.682603 1.52517,-0.875861 0.479294,-0.154021 1.458189,-0.20243 1.954646,-0.09666 0.957081,0.2039 1.854322,0.779922 2.428921,1.559351 0.270238,0.366571 0.455318,0.733144 0.623283,1.234486 l 0.130544,0.389649 -0.01104,15.74708 -0.01104,15.747079 z m -0.369568,-9.463872 c -5.79e-4,-2.96436 -0.01238,-5.024208 -0.02622,-4.577441 -0.01384,0.446767 -0.03128,2.59059 -0.03875,4.764052 -0.01389,4.043548 -0.03546,4.78741 -0.140705,4.852452 -0.04609,0.02849 -0.03292,0.07015 0.06115,0.193494 0.06594,0.08645 0.12567,0.157189 0.132731,0.157189 0.0071,0 0.01236,-2.425386 0.01178,-5.389746 z m -3.930481,-5.104341 c -0.02986,-0.54338 -0.0387,-0.223911 -0.04388,1.584734 -0.0036,1.245922 0.0083,2.54012 0.02645,2.875994 0.02403,0.445637 0.03589,0.01734 0.04388,-1.584734 0.006,-1.207478 -0.0059,-2.501676 -0.02645,-2.875994 z m 3.346278,-15.317658 c -0.148339,-0.136311 -0.336047,-0.285529 -0.417129,-0.331596 -0.119214,-0.06773 -0.105423,-0.04673 0.07208,0.109771 0.120724,0.10644 0.298434,0.266095 0.394912,0.354788 0.09648,0.08869 0.185412,0.150824 0.197631,0.138068 0.01222,-0.01276 -0.09915,-0.134719 -0.247491,-0.271031 z m -2.386744,-0.297109 c 0,-0.04034 -0.05566,-0.003 -0.305079,0.20455 -0.146151,0.121628 -0.265729,0.241852 -0.265729,0.267163 0,0.02531 0.128431,-0.06674 0.285404,-0.20455 0.156972,-0.137814 0.285404,-0.258038 0.285404,-0.267163 z"
     id="path32"
     transform="scale(2.6666667)" />
  <path
     style="fill:#0a0a0a;fill-opacity:1;stroke:#0a0a0a;stroke-width:0.0439083;stroke-opacity:1"
     d="m 64.041006,62.565402 c -1.267322,-1.782937 -1.886062,-2.653987 -4.602212,-6.478904 l -2.467759,-3.475126 2.59e-4,-9.982771 c 2.87e-4,-11.067014 -0.01311,-10.531819 0.279514,-11.165169 0.241947,-0.523662 0.538234,-0.94365 0.946967,-1.34233 0.413738,-0.403562 0.683844,-0.583808 1.218139,-0.812881 0.476485,-0.204288 0.918362,-0.284885 1.559904,-0.284519 0.632326,3.61e-4 1.095851,0.09488 1.59398,0.325028 1.086078,0.501798 1.841277,1.36464 2.232744,2.550991 l 0.116019,0.351598 -0.01104,15.75881 -0.01104,15.758808 z m -1.151353,-8.283751 -0.009,-3.106513 -0.02654,2.85404 c -0.01992,2.142387 -0.04036,2.888808 -0.08197,2.993472 -0.0474,0.119223 -0.0447,0.155815 0.01864,0.252473 0.04074,0.06217 0.08167,0.113041 0.09097,0.113041 0.0093,0 0.01285,-1.397931 0.0079,-3.106513 z m -0.56185,-22.672235 c -0.310973,-0.272303 -0.402622,-0.294292 -0.109724,-0.02632 0.144897,0.132564 0.273308,0.231637 0.285358,0.220163 0.01205,-0.01147 -0.06699,-0.0987 -0.175634,-0.193838 z m -2.656406,-0.03934 c 0.09432,-0.0966 0.161622,-0.175634 0.149547,-0.175634 -0.01207,0 -0.09913,0.07904 -0.193456,0.175634 -0.09432,0.0966 -0.161622,0.175633 -0.149547,0.175633 0.01207,0 0.09913,-0.07903 0.193456,-0.175633 z"
     id="path33"
     transform="scale(2.6666667)" />
  <path
     style="fill:#0a0a0a;fill-opacity:1;stroke:#0a0a0a;stroke-width:0.0439083;stroke-opacity:1"
     d="m 64.040274,62.576535 c -0.470917,-0.663797 -1.173683,-1.653222 -1.561702,-2.198723 -2.790801,-3.923475 -5.468919,-7.703496 -5.50303,-7.767234 -0.06167,-0.115224 0.01527,-20.342464 0.07844,-20.623372 0.06283,-0.279392 0.33984,-0.859715 0.580683,-1.216512 0.531966,-0.788083 1.375607,-1.397328 2.281133,-1.647348 0.220902,-0.06099 0.450029,-0.078 1.05089,-0.078 0.683275,0 0.804666,0.01139 1.095817,0.102817 0.681702,0.214069 1.275624,0.581296 1.760917,1.088788 0.457726,0.478666 0.740255,0.950864 0.981545,1.640481 l 0.115223,0.329312 -0.01185,15.788346 -0.01185,15.788345 z m -1.149014,-6.516597 -0.0074,-1.284318 -0.03108,1.075753 c -0.01829,0.633186 -0.05189,1.127956 -0.08167,1.202643 -0.04204,0.105437 -0.0381,0.140696 0.02332,0.208564 0.04065,0.04492 0.08073,0.08168 0.08906,0.08168 0.0083,0 0.01182,-0.577943 0.0078,-1.284318 z M 62.371758,31.686653 c 0,-0.0083 -0.04446,-0.05279 -0.09879,-0.09879 l -0.09879,-0.08365 0.08365,0.09879 c 0.07861,0.09284 0.113943,0.118782 0.113943,0.08365 z"
     id="path34"
     transform="scale(2.6666667)" />
  <path
     style="fill:#0a0a0a;fill-opacity:1;stroke:#0a0a0a;stroke-width:0.0439083;stroke-opacity:1"
     d="m 64.343243,63.017276 c -0.3026,-0.427484 -0.817113,-1.152659 -1.143361,-1.611501 -3.891748,-5.473441 -6.173089,-8.697294 -6.228188,-8.8013 -0.04641,-0.0876 -0.05126,-1.937597 -0.02625,-10.011095 0.01738,-5.61131 0.04848,-10.067408 0.07175,-10.281498 0.0469,-0.431421 0.09699,-0.592059 0.327637,-1.050883 0.219145,-0.435938 0.380276,-0.666847 0.699443,-1.00234 0.602793,-0.633629 1.271878,-1.015539 2.058358,-1.1749 0.266761,-0.05405 0.508875,-0.06555 1.034283,-0.0491 0.706586,0.02211 0.864246,0.05615 1.476341,0.318737 0.32135,0.137858 0.786356,0.468532 1.13437,0.806672 0.513932,0.499348 0.791803,0.950744 1.070698,1.739325 l 0.108702,0.307358 -0.0072,15.784275 c -0.004,8.681351 -0.01151,15.7886 -0.0168,15.793886 -0.0053,0.0053 -0.257194,-0.340149 -0.559795,-0.767632 z m -1.451966,-6.342622 c -0.0041,-0.368281 -0.01394,-0.590567 -0.02194,-0.493968 -0.008,0.0966 -0.03561,0.369647 -0.06134,0.606775 -0.03547,0.326937 -0.03417,0.446327 0.0054,0.493969 0.02868,0.03455 0.0596,0.06283 0.06872,0.06283 0.0091,0 0.01326,-0.301321 0.0092,-0.669602 z"
     id="path35"
     transform="scale(2.6666667)" />
  <path
     style="fill:#0a0a0a;fill-opacity:1;stroke:#0a0a0a;stroke-width:0.0439083;stroke-opacity:1"
     d="m 64.759162,63.611502 c -0.07224,-0.102269 -0.889539,-1.252917 -1.816231,-2.556994 -2.546013,-3.582851 -5.156292,-7.261987 -5.617857,-7.91826 l -0.411841,-0.585573 0.02754,-9.952422 c 0.018,-6.503171 0.04353,-10.086737 0.07366,-10.33997 0.08663,-0.727935 0.458624,-1.409744 1.142123,-2.093335 0.515073,-0.515142 0.883691,-0.752325 1.527029,-0.982547 0.380404,-0.13613 0.388894,-0.137052 1.261149,-0.137052 0.872254,0 0.880744,9.22e-4 1.261148,0.137052 0.715317,0.25598 1.327755,0.680626 1.825927,1.266044 0.298237,0.350468 0.499583,0.699625 0.722762,1.253357 l 0.185819,0.461037 -0.01679,15.806992 c -0.0092,8.693846 -0.02046,15.811633 -0.02495,15.817305 -0.0045,0.0057 -0.06726,-0.07336 -0.139492,-0.175634 z m -1.860504,-6.735601 c 0,-0.233446 -0.0082,-0.416214 -0.01816,-0.406152 -0.03671,0.03698 -0.111351,0.697463 -0.08622,0.762946 0.06478,0.168821 0.104382,0.03346 0.104382,-0.356794 z"
     id="path36"
     transform="scale(2.6666667)" />
  <path
     style="fill:#0a0a0a;fill-opacity:1;stroke:#0a0a0a;stroke-width:0.0439083;stroke-opacity:1"
     d="M 64.314592,62.999689 C 64.001037,62.557728 62.21033,60.034686 60.335243,57.392927 l -3.40925,-4.803197 0.0074,-7.996076 c 0.0082,-8.828327 0.04224,-12.365479 0.121853,-12.667868 0.254808,-0.967774 1.176225,-2.064862 2.13312,-2.539806 0.618021,-0.306748 0.792729,-0.340631 1.756333,-0.340631 0.808829,0 0.902434,0.0082 1.185524,0.10428 0.464774,0.157687 0.930898,0.413794 1.319098,0.724764 0.644836,0.516549 1.003855,1.035058 1.369643,1.978092 l 0.154444,0.39817 -0.03165,15.763085 c -0.01741,8.669696 -0.03738,15.76903 -0.04438,15.776298 -0.007,0.0073 -0.269268,-0.348389 -0.582824,-0.790349 z m -1.417279,-6.094516 c 0,-0.171934 -0.01226,-0.222524 -0.04256,-0.175633 -0.02341,0.03622 -0.04256,0.174535 -0.04256,0.307358 0,0.171934 0.01226,0.222524 0.04256,0.175633 0.02341,-0.03622 0.04256,-0.174535 0.04256,-0.307358 z"
     id="path37"
     transform="scale(2.6666667)" />
  <path
     style="fill:#0a0a0a;fill-opacity:1;stroke:#0a0a0a;stroke-width:0.0439083;stroke-opacity:1"
     d="M 64.299527,62.986474 C 63.9712,62.527632 62.177948,60.003227 60.314524,57.376684 l -3.388044,-4.775533 0.0077,-8.528686 c 0.009,-9.990508 0.03146,-11.883926 0.145086,-12.238865 0.0925,-0.288947 0.335332,-0.780963 0.520138,-1.053873 0.199927,-0.295239 0.807942,-0.907932 1.096979,-1.10542 0.375011,-0.256231 0.932918,-0.51047 1.282375,-0.584381 0.358939,-0.07592 1.51252,-0.08968 1.86789,-0.02228 0.128324,0.02434 0.389238,0.111659 0.579811,0.194052 1.173289,0.507261 1.877155,1.26711 2.405279,2.596585 l 0.13266,0.333953 -0.01167,11.467327 c -0.0064,6.30703 -0.0217,13.423443 -0.03396,15.81425 l -0.02228,4.346923 z m -1.457178,-6.025812 c -0.01009,-0.06674 -0.01862,-0.02256 -0.01895,0.09819 -3.29e-4,0.120748 0.0079,0.175356 0.01835,0.121352 0.01042,-0.05401 0.01069,-0.152799 6e-4,-0.219542 z"
     id="path38"
     transform="scale(2.6666667)" />
  <path
     style="fill:#0a0a0a;fill-opacity:1;stroke:#0a0a0a;stroke-width:0.0439083;stroke-opacity:1"
     d="M 64.717279,63.579236 C 64.618716,63.446414 63.858004,62.379843 63.026809,61.20908 62.195614,60.038316 60.48273,57.62775 59.2204,55.852266 l -2.295146,-3.228154 0.01833,-10.055003 c 0.01213,-6.654376 0.03387,-10.168895 0.06427,-10.391757 0.118461,-0.868307 0.883663,-1.976331 1.773295,-2.567757 0.358948,-0.238629 0.946108,-0.486145 1.296282,-0.546446 0.403438,-0.06947 1.57007,-0.05358 1.8772,0.02557 0.407365,0.104986 1.106543,0.46393 1.475299,0.757389 0.603963,0.48064 0.971849,0.986274 1.333317,1.832554 l 0.200107,0.468497 -0.0088,12.631478 c -0.0048,6.947313 -0.01989,14.073867 -0.03343,15.836785 l -0.02462,3.205307 z"
     id="path39"
     transform="scale(2.6666667)" />
  <path
     style="fill:#0a0a0a;fill-opacity:1;stroke:#0a0a0a;stroke-width:0.0219542;stroke-opacity:1"
     d="m 64.235809,83.380715 c -0.01388,0.008 -0.02897,-0.09006 -0.0975,-0.189956 C 63.751501,82.626868 61.082102,78.847332 59.97046,77.289605 59.631928,76.815224 59.396331,76.507743 59.288004,76.398919 59.12768,76.23786 58.983584,76.038679 57.065566,73.32688 56.830706,72.994823 55.894071,71.670988 54.984153,70.385023 54.074235,69.099058 52.47025,66.831743 51.419741,65.346544 50.369232,63.861345 49.36825,62.44628 49.195337,62.201955 49.022424,61.957629 48.88095,61.752632 48.88095,61.746406 c 0,-0.0062 2.246026,-0.01132 4.991168,-0.01132 4.726097,0 4.992947,0.002 5.024663,0.03842 0.01842,0.02113 1.004451,1.411652 2.191175,3.090048 1.186724,1.678395 2.357039,3.333189 2.600699,3.677321 1.501858,2.121146 3.538711,5.00759 4.31604,6.116302 0.741027,1.056931 0.986642,1.420657 1.187182,1.758068 0.149352,0.251288 1.817358,2.625003 1.955178,2.782385 l 0.05029,0.05743 c -4.754147,2.953029 -1.741658,1.131201 -6.961536,4.125655 z"
     id="path44"
     transform="scale(2.6666667)"
     sodipodi:nodetypes="scsssssssssssssscs" />
  <path
     style="fill:#0a0a0a;fill-opacity:1;stroke:#0a0a0a;stroke-width:0.0219542;stroke-opacity:1"
     d=""
     id="path45"
     transform="scale(2.6666667)" />
  <path
     style="fill:none;fill-opacity:1;stroke:none;stroke-width:0.0219542;stroke-opacity:1"
     d="m 46.070797,88.966746 c -0.05434,-0.0043 -0.276623,-0.01832 -0.493969,-0.03116 -0.959688,-0.05671 -2.149423,-0.175519 -3.183974,-0.317957 -0.458458,-0.06312 -2.004724,-0.30985 -2.21126,-0.352839 l -0.06037,-0.01257 v -1.019126 -1.019122 h 0.06823 c 0.03753,0 0.257937,0.03431 0.489801,0.07624 1.41725,0.256301 2.6104,0.41998 3.920615,0.537841 2.00908,0.180727 4.528814,0.189019 6.542339,0.02153 4.275268,-0.355628 8.347834,-1.396624 12.426052,-3.176245 0.386345,-0.16859 0.632284,-0.28277 0.656533,-0.304804 0.01816,-0.0165 -0.351337,-0.547183 -2.316702,-3.327333 -2.168512,-3.067519 -2.410725,-3.401139 -2.675101,-3.684642 -0.148256,-0.15898 -0.641182,-0.851642 -6.257196,-8.792639 -0.734397,-1.038432 -1.534527,-2.16962 -1.778067,-2.513751 -0.492952,-0.69656 -1.424576,-2.01434 -1.951166,-2.759919 -0.189436,-0.268216 -0.350256,-0.502851 -0.357379,-0.521412 -0.01163,-0.0303 0.498346,-0.03375 4.99152,-0.03375 h 5.00447 l 0.765889,1.081243 c 1.075051,1.5177 2.071385,2.926226 4.297783,6.075812 4.200981,5.942935 4.831395,6.841592 5.080921,7.242872 0.351752,0.565669 2.078828,3.0385 2.155057,3.085613 0.0532,0.03288 1.710332,-1.298378 2.581144,-2.07357 4.657039,-4.145671 8.105185,-9.029523 10.462802,-14.819207 l 0.236907,-0.581786 1.066248,-0.0057 c 0.95002,-0.0051 1.066247,-0.002 1.066247,0.02827 0,0.05012 -0.247869,0.71009 -0.528502,1.40717 -0.869942,2.160896 -1.989795,4.362204 -3.231911,6.353008 -2.730414,4.376172 -6.250416,8.198036 -10.476857,11.375307 -1.386056,1.041982 -2.35212,1.635796 -4.254127,2.614902 l -0.895141,0.460796 0.01373,0.07321 c 0.01233,0.06573 0.0062,0.07792 -0.05986,0.119293 -0.113086,0.0708 -1.577863,0.799429 -2.071428,1.030389 -3.577111,1.673895 -7.556552,2.85444 -11.506092,3.413411 -0.939463,0.132961 -1.78708,0.219976 -3.13733,0.322074 -0.303702,0.02296 -4.134656,0.04794 -4.379854,0.02855 z m 23.529962,-8.28203 c 0.05638,-0.04875 0.05666,-0.04987 0.0049,-0.0196 -0.152243,0.08902 -0.285404,0.174973 -0.285404,0.184212 0,0.01758 0.217252,-0.10991 0.280511,-0.164614 z"
     id="path48"
     transform="scale(2.6666667)" />
</svg>
